<svg xmlns="http://www.w3.org/2000/svg" viewBox="0 0 1024 1024" width="1024" height="1024" role="img" aria-label="ochre crate folder"><title>ochre</title><defs><linearGradient id="body" x1="0.1" y1="0" x2="0.4" y2="1"><stop offset="0" stop-color="#E1A357"/><stop offset="0.6" stop-color="#D79A4D"/><stop offset="1" stop-color="#CD9143"/></linearGradient><linearGradient id="floor" x1="0" y1="0" x2="0" y2="1"><stop offset="0" stop-color="#CA8E40"/><stop offset="1" stop-color="#D39649"/></linearGradient><linearGradient id="sheen" x1="0.15" y1="0" x2="0.65" y2="1"><stop offset="0" stop-color="#FFFFFF" stop-opacity="0.055"/><stop offset="0.45" stop-color="#FFFFFF" stop-opacity="0.02"/><stop offset="1" stop-color="#FFFFFF" stop-opacity="0"/></linearGradient><clipPath id="shell"><path d="M 0,622 L 0,44 A 44,44 0 0 1 44,0 L 330,0 C 372,0 395,96 437,96 L 846,96 A 54,54 0 0 1 900,150 L 900,622 A 62,62 0 0 1 838,684 L 62,684 A 62,62 0 0 1 0,622 Z"/></clipPath><mask id="holes" maskUnits="userSpaceOnUse" x="-30" y="-30" width="960" height="744"><rect x="-30" y="-30" width="960" height="744" fill="#FFF"/><rect x="135.2" y="199.0" width="15" height="66" rx="4.5" fill="#000"/><rect x="168.5" y="199.0" width="15" height="66" rx="4.5" fill="#000"/><rect x="201.8" y="199.0" width="15" height="66" rx="4.5" fill="#000"/><rect x="235.2" y="199.0" width="15" height="66" rx="4.5" fill="#000"/><rect x="268.5" y="199.0" width="15" height="66" rx="4.5" fill="#000"/><rect x="301.8" y="199.0" width="15" height="66" rx="4.5" fill="#000"/><rect x="335.2" y="199.0" width="15" height="66" rx="4.5" fill="#000"/><rect x="368.5" y="199.0" width="15" height="66" rx="4.5" fill="#000"/><rect x="401.8" y="199.0" width="15" height="66" rx="4.5" fill="#000"/><rect x="135.2" y="300.7" width="15" height="66" rx="4.5" fill="#000"/><rect x="168.5" y="300.7" width="15" height="66" rx="4.5" fill="#000"/><rect x="201.8" y="300.7" width="15" height="66" rx="4.5" fill="#000"/><rect x="235.2" y="300.7" width="15" height="66" rx="4.5" fill="#000"/><rect x="268.5" y="300.7" width="15" height="66" rx="4.5" fill="#000"/><rect x="301.8" y="300.7" width="15" height="66" rx="4.5" fill="#000"/><rect x="335.2" y="300.7" width="15" height="66" rx="4.5" fill="#000"/><rect x="368.5" y="300.7" width="15" height="66" rx="4.5" fill="#000"/><rect x="401.8" y="300.7" width="15" height="66" rx="4.5" fill="#000"/><rect x="135.2" y="402.3" width="15" height="66" rx="4.5" fill="#000"/><rect x="168.5" y="402.3" width="15" height="66" rx="4.5" fill="#000"/><rect x="201.8" y="402.3" width="15" height="66" rx="4.5" fill="#000"/><rect x="235.2" y="402.3" width="15" height="66" rx="4.5" fill="#000"/><rect x="268.5" y="402.3" width="15" height="66" rx="4.5" fill="#000"/><rect x="301.8" y="402.3" width="15" height="66" rx="4.5" fill="#000"/><rect x="335.2" y="402.3" width="15" height="66" rx="4.5" fill="#000"/><rect x="368.5" y="402.3" width="15" height="66" rx="4.5" fill="#000"/><rect x="401.8" y="402.3" width="15" height="66" rx="4.5" fill="#000"/><rect x="135.2" y="504.0" width="15" height="66" rx="4.5" fill="#000"/><rect x="168.5" y="504.0" width="15" height="66" rx="4.5" fill="#000"/><rect x="201.8" y="504.0" width="15" height="66" rx="4.5" fill="#000"/><rect x="235.2" y="504.0" width="15" height="66" rx="4.5" fill="#000"/><rect x="268.5" y="504.0" width="15" height="66" rx="4.5" fill="#000"/><rect x="301.8" y="504.0" width="15" height="66" rx="4.5" fill="#000"/><rect x="335.2" y="504.0" width="15" height="66" rx="4.5" fill="#000"/><rect x="368.5" y="504.0" width="15" height="66" rx="4.5" fill="#000"/><rect x="401.8" y="504.0" width="15" height="66" rx="4.5" fill="#000"/><rect x="483.2" y="199.0" width="15" height="66" rx="4.5" fill="#000"/><rect x="516.5" y="199.0" width="15" height="66" rx="4.5" fill="#000"/><rect x="549.8" y="199.0" width="15" height="66" rx="4.5" fill="#000"/><rect x="583.2" y="199.0" width="15" height="66" rx="4.5" fill="#000"/><rect x="616.5" y="199.0" width="15" height="66" rx="4.5" fill="#000"/><rect x="649.8" y="199.0" width="15" height="66" rx="4.5" fill="#000"/><rect x="683.2" y="199.0" width="15" height="66" rx="4.5" fill="#000"/><rect x="716.5" y="199.0" width="15" height="66" rx="4.5" fill="#000"/><rect x="749.8" y="199.0" width="15" height="66" rx="4.5" fill="#000"/><rect x="483.2" y="300.7" width="15" height="66" rx="4.5" fill="#000"/><rect x="516.5" y="300.7" width="15" height="66" rx="4.5" fill="#000"/><rect x="549.8" y="300.7" width="15" height="66" rx="4.5" fill="#000"/><rect x="583.2" y="300.7" width="15" height="66" rx="4.5" fill="#000"/><rect x="616.5" y="300.7" width="15" height="66" rx="4.5" fill="#000"/><rect x="649.8" y="300.7" width="15" height="66" rx="4.5" fill="#000"/><rect x="683.2" y="300.7" width="15" height="66" rx="4.5" fill="#000"/><rect x="716.5" y="300.7" width="15" height="66" rx="4.5" fill="#000"/><rect x="749.8" y="300.7" width="15" height="66" rx="4.5" fill="#000"/><rect x="483.2" y="402.3" width="15" height="66" rx="4.5" fill="#000"/><rect x="516.5" y="402.3" width="15" height="66" rx="4.5" fill="#000"/><rect x="549.8" y="402.3" width="15" height="66" rx="4.5" fill="#000"/><rect x="583.2" y="402.3" width="15" height="66" rx="4.5" fill="#000"/><rect x="616.5" y="402.3" width="15" height="66" rx="4.5" fill="#000"/><rect x="649.8" y="402.3" width="15" height="66" rx="4.5" fill="#000"/><rect x="683.2" y="402.3" width="15" height="66" rx="4.5" fill="#000"/><rect x="716.5" y="402.3" width="15" height="66" rx="4.5" fill="#000"/><rect x="749.8" y="402.3" width="15" height="66" rx="4.5" fill="#000"/><rect x="483.2" y="504.0" width="15" height="66" rx="4.5" fill="#000"/><rect x="516.5" y="504.0" width="15" height="66" rx="4.5" fill="#000"/><rect x="549.8" y="504.0" width="15" height="66" rx="4.5" fill="#000"/><rect x="583.2" y="504.0" width="15" height="66" rx="4.5" fill="#000"/><rect x="616.5" y="504.0" width="15" height="66" rx="4.5" fill="#000"/><rect x="649.8" y="504.0" width="15" height="66" rx="4.5" fill="#000"/><rect x="683.2" y="504.0" width="15" height="66" rx="4.5" fill="#000"/><rect x="716.5" y="504.0" width="15" height="66" rx="4.5" fill="#000"/><rect x="749.8" y="504.0" width="15" height="66" rx="4.5" fill="#000"/><rect x="109.4" y="42" width="19" height="60" rx="4.5" fill="#000"/><rect x="137.1" y="42" width="19" height="60" rx="4.5" fill="#000"/><rect x="164.8" y="42" width="19" height="60" rx="4.5" fill="#000"/><rect x="192.5" y="42" width="19" height="60" rx="4.5" fill="#000"/><rect x="220.2" y="42" width="19" height="60" rx="4.5" fill="#000"/><rect x="247.9" y="42" width="19" height="60" rx="4.5" fill="#000"/><rect x="275.6" y="42" width="19" height="60" rx="4.5" fill="#000"/></mask></defs><g transform="translate(62,170)"><g mask="url(#holes)"><rect x="-9" y="213.6" width="33" height="62" rx="11" fill="#C78A3C"/><rect x="876" y="213.6" width="33" height="62" rx="11" fill="#C78A3C"/><path d="M 0,622 L 0,44 A 44,44 0 0 1 44,0 L 330,0 C 372,0 395,96 437,96 L 846,96 A 54,54 0 0 1 900,150 L 900,622 A 62,62 0 0 1 838,684 L 62,684 A 62,62 0 0 1 0,622 Z" fill="url(#body)"/><g clip-path="url(#shell)"><rect x="112" y="120" width="676" height="480" rx="12" fill="url(#floor)"/><rect x="113.5" y="121.5" width="673" height="477" rx="11" fill="none" stroke="#A66C15" stroke-width="3" stroke-opacity="0.5"/><rect x="124" y="132" width="652" height="456" rx="7" fill="none" stroke="#ECAE61" stroke-width="3" stroke-opacity="0.6"/><rect x="124" y="135" width="652" height="456" rx="7" fill="none" stroke="#A66C15" stroke-width="1.5" stroke-opacity="0.35"/><rect x="0" y="96" width="108" height="588" fill="#D79A4D"/><rect x="0" y="96" width="30" height="588" fill="#E1A357"/><rect x="27.5" y="96" width="2.5" height="588" fill="#B87D2C" fill-opacity="0.55"/><rect x="39" y="124.0" width="60" height="43.3" rx="4" fill="#C78A3C" fill-opacity="0.55"/><rect x="39" y="122.0" width="60" height="43.3" rx="4" fill="none" stroke="#ECAE61" stroke-width="2" stroke-opacity="0.45"/><rect x="39" y="177.3" width="60" height="43.3" rx="4" fill="#C78A3C" fill-opacity="0.55"/><rect x="39" y="175.3" width="60" height="43.3" rx="4" fill="none" stroke="#ECAE61" stroke-width="2" stroke-opacity="0.45"/><rect x="39" y="230.7" width="60" height="43.3" rx="4" fill="#C78A3C" fill-opacity="0.55"/><rect x="39" y="228.7" width="60" height="43.3" rx="4" fill="none" stroke="#ECAE61" stroke-width="2" stroke-opacity="0.45"/><rect x="39" y="284.0" width="60" height="43.3" rx="4" fill="#C78A3C" fill-opacity="0.55"/><rect x="39" y="282.0" width="60" height="43.3" rx="4" fill="none" stroke="#ECAE61" stroke-width="2" stroke-opacity="0.45"/><rect x="39" y="337.3" width="60" height="43.3" rx="4" fill="#C78A3C" fill-opacity="0.55"/><rect x="39" y="335.3" width="60" height="43.3" rx="4" fill="none" stroke="#ECAE61" stroke-width="2" stroke-opacity="0.45"/><rect x="39" y="390.7" width="60" height="43.3" rx="4" fill="#C78A3C" fill-opacity="0.55"/><rect x="39" y="388.7" width="60" height="43.3" rx="4" fill="none" stroke="#ECAE61" stroke-width="2" stroke-opacity="0.45"/><rect x="39" y="444.0" width="60" height="43.3" rx="4" fill="#C78A3C" fill-opacity="0.55"/><rect x="39" y="442.0" width="60" height="43.3" rx="4" fill="none" stroke="#ECAE61" stroke-width="2" stroke-opacity="0.45"/><rect x="39" y="497.3" width="60" height="43.3" rx="4" fill="#C78A3C" fill-opacity="0.55"/><rect x="39" y="495.3" width="60" height="43.3" rx="4" fill="none" stroke="#ECAE61" stroke-width="2" stroke-opacity="0.45"/><rect x="39" y="550.7" width="60" height="43.3" rx="4" fill="#C78A3C" fill-opacity="0.55"/><rect x="39" y="548.7" width="60" height="43.3" rx="4" fill="none" stroke="#ECAE61" stroke-width="2" stroke-opacity="0.45"/><rect x="5" y="171.3" width="20" height="3" rx="1.5" fill="#B87D2C" fill-opacity="0.35"/><rect x="5" y="224.7" width="20" height="3" rx="1.5" fill="#B87D2C" fill-opacity="0.35"/><rect x="5" y="278.0" width="20" height="3" rx="1.5" fill="#B87D2C" fill-opacity="0.35"/><rect x="5" y="331.3" width="20" height="3" rx="1.5" fill="#B87D2C" fill-opacity="0.35"/><rect x="5" y="384.7" width="20" height="3" rx="1.5" fill="#B87D2C" fill-opacity="0.35"/><rect x="5" y="438.0" width="20" height="3" rx="1.5" fill="#B87D2C" fill-opacity="0.35"/><rect x="5" y="491.3" width="20" height="3" rx="1.5" fill="#B87D2C" fill-opacity="0.35"/><rect x="5" y="544.7" width="20" height="3" rx="1.5" fill="#B87D2C" fill-opacity="0.35"/><rect x="792" y="96" width="108" height="588" fill="#D79A4D"/><rect x="870" y="96" width="30" height="588" fill="#E1A357"/><rect x="870" y="96" width="2.5" height="588" fill="#B87D2C" fill-opacity="0.55"/><rect x="801" y="124.0" width="60" height="43.3" rx="4" fill="#C78A3C" fill-opacity="0.55"/><rect x="801" y="122.0" width="60" height="43.3" rx="4" fill="none" stroke="#ECAE61" stroke-width="2" stroke-opacity="0.45"/><rect x="801" y="177.3" width="60" height="43.3" rx="4" fill="#C78A3C" fill-opacity="0.55"/><rect x="801" y="175.3" width="60" height="43.3" rx="4" fill="none" stroke="#ECAE61" stroke-width="2" stroke-opacity="0.45"/><rect x="801" y="230.7" width="60" height="43.3" rx="4" fill="#C78A3C" fill-opacity="0.55"/><rect x="801" y="228.7" width="60" height="43.3" rx="4" fill="none" stroke="#ECAE61" stroke-width="2" stroke-opacity="0.45"/><rect x="801" y="284.0" width="60" height="43.3" rx="4" fill="#C78A3C" fill-opacity="0.55"/><rect x="801" y="282.0" width="60" height="43.3" rx="4" fill="none" stroke="#ECAE61" stroke-width="2" stroke-opacity="0.45"/><rect x="801" y="337.3" width="60" height="43.3" rx="4" fill="#C78A3C" fill-opacity="0.55"/><rect x="801" y="335.3" width="60" height="43.3" rx="4" fill="none" stroke="#ECAE61" stroke-width="2" stroke-opacity="0.45"/><rect x="801" y="390.7" width="60" height="43.3" rx="4" fill="#C78A3C" fill-opacity="0.55"/><rect x="801" y="388.7" width="60" height="43.3" rx="4" fill="none" stroke="#ECAE61" stroke-width="2" stroke-opacity="0.45"/><rect x="801" y="444.0" width="60" height="43.3" rx="4" fill="#C78A3C" fill-opacity="0.55"/><rect x="801" y="442.0" width="60" height="43.3" rx="4" fill="none" stroke="#ECAE61" stroke-width="2" stroke-opacity="0.45"/><rect x="801" y="497.3" width="60" height="43.3" rx="4" fill="#C78A3C" fill-opacity="0.55"/><rect x="801" y="495.3" width="60" height="43.3" rx="4" fill="none" stroke="#ECAE61" stroke-width="2" stroke-opacity="0.45"/><rect x="801" y="550.7" width="60" height="43.3" rx="4" fill="#C78A3C" fill-opacity="0.55"/><rect x="801" y="548.7" width="60" height="43.3" rx="4" fill="none" stroke="#ECAE61" stroke-width="2" stroke-opacity="0.45"/><rect x="875" y="171.3" width="20" height="3" rx="1.5" fill="#B87D2C" fill-opacity="0.35"/><rect x="875" y="224.7" width="20" height="3" rx="1.5" fill="#B87D2C" fill-opacity="0.35"/><rect x="875" y="278.0" width="20" height="3" rx="1.5" fill="#B87D2C" fill-opacity="0.35"/><rect x="875" y="331.3" width="20" height="3" rx="1.5" fill="#B87D2C" fill-opacity="0.35"/><rect x="875" y="384.7" width="20" height="3" rx="1.5" fill="#B87D2C" fill-opacity="0.35"/><rect x="875" y="438.0" width="20" height="3" rx="1.5" fill="#B87D2C" fill-opacity="0.35"/><rect x="875" y="491.3" width="20" height="3" rx="1.5" fill="#B87D2C" fill-opacity="0.35"/><rect x="875" y="544.7" width="20" height="3" rx="1.5" fill="#B87D2C" fill-opacity="0.35"/><rect x="440.0" y="120" width="20" height="480" fill="#D79A4D"/><rect x="440.0" y="120" width="3" height="480" fill="#ECAE61" fill-opacity="0.9"/><rect x="457.0" y="120" width="3" height="480" fill="#A66C15" fill-opacity="0.4"/><rect x="130.1" y="193.9" width="25.2" height="76.2" rx="9.6" fill="#ECAE61" fill-opacity="0.55"/><rect x="132.0" y="195.8" width="15" height="66" rx="4.5" fill="#ECAE61"/><rect x="138.4" y="201.6" width="15" height="66" rx="4.5" fill="#A66C15"/><rect x="163.4" y="193.9" width="25.2" height="76.2" rx="9.6" fill="#ECAE61" fill-opacity="0.55"/><rect x="165.3" y="195.8" width="15" height="66" rx="4.5" fill="#ECAE61"/><rect x="171.7" y="201.6" width="15" height="66" rx="4.5" fill="#A66C15"/><rect x="196.7" y="193.9" width="25.2" height="76.2" rx="9.6" fill="#ECAE61" fill-opacity="0.55"/><rect x="198.6" y="195.8" width="15" height="66" rx="4.5" fill="#ECAE61"/><rect x="205.0" y="201.6" width="15" height="66" rx="4.5" fill="#A66C15"/><rect x="230.1" y="193.9" width="25.2" height="76.2" rx="9.6" fill="#ECAE61" fill-opacity="0.55"/><rect x="232.0" y="195.8" width="15" height="66" rx="4.5" fill="#ECAE61"/><rect x="238.4" y="201.6" width="15" height="66" rx="4.5" fill="#A66C15"/><rect x="263.4" y="193.9" width="25.2" height="76.2" rx="9.6" fill="#ECAE61" fill-opacity="0.55"/><rect x="265.3" y="195.8" width="15" height="66" rx="4.5" fill="#ECAE61"/><rect x="271.7" y="201.6" width="15" height="66" rx="4.5" fill="#A66C15"/><rect x="296.7" y="193.9" width="25.2" height="76.2" rx="9.6" fill="#ECAE61" fill-opacity="0.55"/><rect x="298.6" y="195.8" width="15" height="66" rx="4.5" fill="#ECAE61"/><rect x="305.0" y="201.6" width="15" height="66" rx="4.5" fill="#A66C15"/><rect x="330.1" y="193.9" width="25.2" height="76.2" rx="9.6" fill="#ECAE61" fill-opacity="0.55"/><rect x="332.0" y="195.8" width="15" height="66" rx="4.5" fill="#ECAE61"/><rect x="338.4" y="201.6" width="15" height="66" rx="4.5" fill="#A66C15"/><rect x="363.4" y="193.9" width="25.2" height="76.2" rx="9.6" fill="#ECAE61" fill-opacity="0.55"/><rect x="365.3" y="195.8" width="15" height="66" rx="4.5" fill="#ECAE61"/><rect x="371.7" y="201.6" width="15" height="66" rx="4.5" fill="#A66C15"/><rect x="396.7" y="193.9" width="25.2" height="76.2" rx="9.6" fill="#ECAE61" fill-opacity="0.55"/><rect x="398.6" y="195.8" width="15" height="66" rx="4.5" fill="#ECAE61"/><rect x="405.0" y="201.6" width="15" height="66" rx="4.5" fill="#A66C15"/><rect x="130.1" y="295.6" width="25.2" height="76.2" rx="9.6" fill="#ECAE61" fill-opacity="0.55"/><rect x="132.0" y="297.5" width="15" height="66" rx="4.5" fill="#ECAE61"/><rect x="138.4" y="303.3" width="15" height="66" rx="4.5" fill="#A66C15"/><rect x="163.4" y="295.6" width="25.2" height="76.2" rx="9.6" fill="#ECAE61" fill-opacity="0.55"/><rect x="165.3" y="297.5" width="15" height="66" rx="4.5" fill="#ECAE61"/><rect x="171.7" y="303.3" width="15" height="66" rx="4.5" fill="#A66C15"/><rect x="196.7" y="295.6" width="25.2" height="76.2" rx="9.6" fill="#ECAE61" fill-opacity="0.55"/><rect x="198.6" y="297.5" width="15" height="66" rx="4.5" fill="#ECAE61"/><rect x="205.0" y="303.3" width="15" height="66" rx="4.5" fill="#A66C15"/><rect x="230.1" y="295.6" width="25.2" height="76.2" rx="9.6" fill="#ECAE61" fill-opacity="0.55"/><rect x="232.0" y="297.5" width="15" height="66" rx="4.5" fill="#ECAE61"/><rect x="238.4" y="303.3" width="15" height="66" rx="4.5" fill="#A66C15"/><rect x="263.4" y="295.6" width="25.2" height="76.2" rx="9.6" fill="#ECAE61" fill-opacity="0.55"/><rect x="265.3" y="297.5" width="15" height="66" rx="4.5" fill="#ECAE61"/><rect x="271.7" y="303.3" width="15" height="66" rx="4.5" fill="#A66C15"/><rect x="296.7" y="295.6" width="25.2" height="76.2" rx="9.6" fill="#ECAE61" fill-opacity="0.55"/><rect x="298.6" y="297.5" width="15" height="66" rx="4.5" fill="#ECAE61"/><rect x="305.0" y="303.3" width="15" height="66" rx="4.5" fill="#A66C15"/><rect x="330.1" y="295.6" width="25.2" height="76.2" rx="9.6" fill="#ECAE61" fill-opacity="0.55"/><rect x="332.0" y="297.5" width="15" height="66" rx="4.5" fill="#ECAE61"/><rect x="338.4" y="303.3" width="15" height="66" rx="4.5" fill="#A66C15"/><rect x="363.4" y="295.6" width="25.2" height="76.2" rx="9.6" fill="#ECAE61" fill-opacity="0.55"/><rect x="365.3" y="297.5" width="15" height="66" rx="4.5" fill="#ECAE61"/><rect x="371.7" y="303.3" width="15" height="66" rx="4.5" fill="#A66C15"/><rect x="396.7" y="295.6" width="25.2" height="76.2" rx="9.6" fill="#ECAE61" fill-opacity="0.55"/><rect x="398.6" y="297.5" width="15" height="66" rx="4.5" fill="#ECAE61"/><rect x="405.0" y="303.3" width="15" height="66" rx="4.5" fill="#A66C15"/><rect x="130.1" y="397.2" width="25.2" height="76.2" rx="9.6" fill="#ECAE61" fill-opacity="0.55"/><rect x="132.0" y="399.1" width="15" height="66" rx="4.5" fill="#ECAE61"/><rect x="138.4" y="404.9" width="15" height="66" rx="4.5" fill="#A66C15"/><rect x="163.4" y="397.2" width="25.2" height="76.2" rx="9.6" fill="#ECAE61" fill-opacity="0.55"/><rect x="165.3" y="399.1" width="15" height="66" rx="4.5" fill="#ECAE61"/><rect x="171.7" y="404.9" width="15" height="66" rx="4.5" fill="#A66C15"/><rect x="196.7" y="397.2" width="25.2" height="76.2" rx="9.6" fill="#ECAE61" fill-opacity="0.55"/><rect x="198.6" y="399.1" width="15" height="66" rx="4.5" fill="#ECAE61"/><rect x="205.0" y="404.9" width="15" height="66" rx="4.5" fill="#A66C15"/><rect x="230.1" y="397.2" width="25.2" height="76.2" rx="9.6" fill="#ECAE61" fill-opacity="0.55"/><rect x="232.0" y="399.1" width="15" height="66" rx="4.5" fill="#ECAE61"/><rect x="238.4" y="404.9" width="15" height="66" rx="4.5" fill="#A66C15"/><rect x="263.4" y="397.2" width="25.2" height="76.2" rx="9.6" fill="#ECAE61" fill-opacity="0.55"/><rect x="265.3" y="399.1" width="15" height="66" rx="4.5" fill="#ECAE61"/><rect x="271.7" y="404.9" width="15" height="66" rx="4.5" fill="#A66C15"/><rect x="296.7" y="397.2" width="25.2" height="76.2" rx="9.6" fill="#ECAE61" fill-opacity="0.55"/><rect x="298.6" y="399.1" width="15" height="66" rx="4.5" fill="#ECAE61"/><rect x="305.0" y="404.9" width="15" height="66" rx="4.5" fill="#A66C15"/><rect x="330.1" y="397.2" width="25.2" height="76.2" rx="9.6" fill="#ECAE61" fill-opacity="0.55"/><rect x="332.0" y="399.1" width="15" height="66" rx="4.5" fill="#ECAE61"/><rect x="338.4" y="404.9" width="15" height="66" rx="4.5" fill="#A66C15"/><rect x="363.4" y="397.2" width="25.2" height="76.2" rx="9.6" fill="#ECAE61" fill-opacity="0.55"/><rect x="365.3" y="399.1" width="15" height="66" rx="4.5" fill="#ECAE61"/><rect x="371.7" y="404.9" width="15" height="66" rx="4.5" fill="#A66C15"/><rect x="396.7" y="397.2" width="25.2" height="76.2" rx="9.6" fill="#ECAE61" fill-opacity="0.55"/><rect x="398.6" y="399.1" width="15" height="66" rx="4.5" fill="#ECAE61"/><rect x="405.0" y="404.9" width="15" height="66" rx="4.5" fill="#A66C15"/><rect x="130.1" y="498.9" width="25.2" height="76.2" rx="9.6" fill="#ECAE61" fill-opacity="0.55"/><rect x="132.0" y="500.8" width="15" height="66" rx="4.5" fill="#ECAE61"/><rect x="138.4" y="506.6" width="15" height="66" rx="4.5" fill="#A66C15"/><rect x="163.4" y="498.9" width="25.2" height="76.2" rx="9.6" fill="#ECAE61" fill-opacity="0.55"/><rect x="165.3" y="500.8" width="15" height="66" rx="4.5" fill="#ECAE61"/><rect x="171.7" y="506.6" width="15" height="66" rx="4.5" fill="#A66C15"/><rect x="196.7" y="498.9" width="25.2" height="76.2" rx="9.6" fill="#ECAE61" fill-opacity="0.55"/><rect x="198.6" y="500.8" width="15" height="66" rx="4.5" fill="#ECAE61"/><rect x="205.0" y="506.6" width="15" height="66" rx="4.5" fill="#A66C15"/><rect x="230.1" y="498.9" width="25.2" height="76.2" rx="9.6" fill="#ECAE61" fill-opacity="0.55"/><rect x="232.0" y="500.8" width="15" height="66" rx="4.5" fill="#ECAE61"/><rect x="238.4" y="506.6" width="15" height="66" rx="4.5" fill="#A66C15"/><rect x="263.4" y="498.9" width="25.2" height="76.2" rx="9.6" fill="#ECAE61" fill-opacity="0.55"/><rect x="265.3" y="500.8" width="15" height="66" rx="4.5" fill="#ECAE61"/><rect x="271.7" y="506.6" width="15" height="66" rx="4.5" fill="#A66C15"/><rect x="296.7" y="498.9" width="25.2" height="76.2" rx="9.6" fill="#ECAE61" fill-opacity="0.55"/><rect x="298.6" y="500.8" width="15" height="66" rx="4.5" fill="#ECAE61"/><rect x="305.0" y="506.6" width="15" height="66" rx="4.5" fill="#A66C15"/><rect x="330.1" y="498.9" width="25.2" height="76.2" rx="9.6" fill="#ECAE61" fill-opacity="0.55"/><rect x="332.0" y="500.8" width="15" height="66" rx="4.5" fill="#ECAE61"/><rect x="338.4" y="506.6" width="15" height="66" rx="4.5" fill="#A66C15"/><rect x="363.4" y="498.9" width="25.2" height="76.2" rx="9.6" fill="#ECAE61" fill-opacity="0.55"/><rect x="365.3" y="500.8" width="15" height="66" rx="4.5" fill="#ECAE61"/><rect x="371.7" y="506.6" width="15" height="66" rx="4.5" fill="#A66C15"/><rect x="396.7" y="498.9" width="25.2" height="76.2" rx="9.6" fill="#ECAE61" fill-opacity="0.55"/><rect x="398.6" y="500.8" width="15" height="66" rx="4.5" fill="#ECAE61"/><rect x="405.0" y="506.6" width="15" height="66" rx="4.5" fill="#A66C15"/><rect x="478.1" y="193.9" width="25.2" height="76.2" rx="9.6" fill="#ECAE61" fill-opacity="0.55"/><rect x="480.0" y="195.8" width="15" height="66" rx="4.5" fill="#ECAE61"/><rect x="486.4" y="201.6" width="15" height="66" rx="4.5" fill="#A66C15"/><rect x="511.4" y="193.9" width="25.2" height="76.2" rx="9.6" fill="#ECAE61" fill-opacity="0.55"/><rect x="513.3" y="195.8" width="15" height="66" rx="4.5" fill="#ECAE61"/><rect x="519.7" y="201.6" width="15" height="66" rx="4.5" fill="#A66C15"/><rect x="544.7" y="193.9" width="25.2" height="76.2" rx="9.6" fill="#ECAE61" fill-opacity="0.55"/><rect x="546.6" y="195.8" width="15" height="66" rx="4.5" fill="#ECAE61"/><rect x="553.0" y="201.6" width="15" height="66" rx="4.5" fill="#A66C15"/><rect x="578.1" y="193.9" width="25.2" height="76.2" rx="9.6" fill="#ECAE61" fill-opacity="0.55"/><rect x="580.0" y="195.8" width="15" height="66" rx="4.5" fill="#ECAE61"/><rect x="586.4" y="201.6" width="15" height="66" rx="4.5" fill="#A66C15"/><rect x="611.4" y="193.9" width="25.2" height="76.2" rx="9.6" fill="#ECAE61" fill-opacity="0.55"/><rect x="613.3" y="195.8" width="15" height="66" rx="4.5" fill="#ECAE61"/><rect x="619.7" y="201.6" width="15" height="66" rx="4.5" fill="#A66C15"/><rect x="644.7" y="193.9" width="25.2" height="76.2" rx="9.6" fill="#ECAE61" fill-opacity="0.55"/><rect x="646.6" y="195.8" width="15" height="66" rx="4.5" fill="#ECAE61"/><rect x="653.0" y="201.6" width="15" height="66" rx="4.5" fill="#A66C15"/><rect x="678.1" y="193.9" width="25.2" height="76.2" rx="9.6" fill="#ECAE61" fill-opacity="0.55"/><rect x="680.0" y="195.8" width="15" height="66" rx="4.5" fill="#ECAE61"/><rect x="686.4" y="201.6" width="15" height="66" rx="4.5" fill="#A66C15"/><rect x="711.4" y="193.9" width="25.2" height="76.2" rx="9.6" fill="#ECAE61" fill-opacity="0.55"/><rect x="713.3" y="195.8" width="15" height="66" rx="4.5" fill="#ECAE61"/><rect x="719.7" y="201.6" width="15" height="66" rx="4.5" fill="#A66C15"/><rect x="744.7" y="193.9" width="25.2" height="76.2" rx="9.6" fill="#ECAE61" fill-opacity="0.55"/><rect x="746.6" y="195.8" width="15" height="66" rx="4.5" fill="#ECAE61"/><rect x="753.0" y="201.6" width="15" height="66" rx="4.5" fill="#A66C15"/><rect x="478.1" y="295.6" width="25.2" height="76.2" rx="9.6" fill="#ECAE61" fill-opacity="0.55"/><rect x="480.0" y="297.5" width="15" height="66" rx="4.5" fill="#ECAE61"/><rect x="486.4" y="303.3" width="15" height="66" rx="4.5" fill="#A66C15"/><rect x="511.4" y="295.6" width="25.2" height="76.2" rx="9.6" fill="#ECAE61" fill-opacity="0.55"/><rect x="513.3" y="297.5" width="15" height="66" rx="4.5" fill="#ECAE61"/><rect x="519.7" y="303.3" width="15" height="66" rx="4.5" fill="#A66C15"/><rect x="544.7" y="295.6" width="25.2" height="76.2" rx="9.6" fill="#ECAE61" fill-opacity="0.55"/><rect x="546.6" y="297.5" width="15" height="66" rx="4.5" fill="#ECAE61"/><rect x="553.0" y="303.3" width="15" height="66" rx="4.5" fill="#A66C15"/><rect x="578.1" y="295.6" width="25.2" height="76.2" rx="9.6" fill="#ECAE61" fill-opacity="0.55"/><rect x="580.0" y="297.5" width="15" height="66" rx="4.5" fill="#ECAE61"/><rect x="586.4" y="303.3" width="15" height="66" rx="4.5" fill="#A66C15"/><rect x="611.4" y="295.6" width="25.2" height="76.2" rx="9.6" fill="#ECAE61" fill-opacity="0.55"/><rect x="613.3" y="297.5" width="15" height="66" rx="4.5" fill="#ECAE61"/><rect x="619.7" y="303.3" width="15" height="66" rx="4.5" fill="#A66C15"/><rect x="644.7" y="295.6" width="25.2" height="76.2" rx="9.6" fill="#ECAE61" fill-opacity="0.55"/><rect x="646.6" y="297.5" width="15" height="66" rx="4.5" fill="#ECAE61"/><rect x="653.0" y="303.3" width="15" height="66" rx="4.5" fill="#A66C15"/><rect x="678.1" y="295.6" width="25.2" height="76.2" rx="9.6" fill="#ECAE61" fill-opacity="0.55"/><rect x="680.0" y="297.5" width="15" height="66" rx="4.5" fill="#ECAE61"/><rect x="686.4" y="303.3" width="15" height="66" rx="4.5" fill="#A66C15"/><rect x="711.4" y="295.6" width="25.2" height="76.2" rx="9.6" fill="#ECAE61" fill-opacity="0.55"/><rect x="713.3" y="297.5" width="15" height="66" rx="4.5" fill="#ECAE61"/><rect x="719.7" y="303.3" width="15" height="66" rx="4.5" fill="#A66C15"/><rect x="744.7" y="295.6" width="25.2" height="76.2" rx="9.6" fill="#ECAE61" fill-opacity="0.55"/><rect x="746.6" y="297.5" width="15" height="66" rx="4.5" fill="#ECAE61"/><rect x="753.0" y="303.3" width="15" height="66" rx="4.5" fill="#A66C15"/><rect x="478.1" y="397.2" width="25.2" height="76.2" rx="9.6" fill="#ECAE61" fill-opacity="0.55"/><rect x="480.0" y="399.1" width="15" height="66" rx="4.5" fill="#ECAE61"/><rect x="486.4" y="404.9" width="15" height="66" rx="4.5" fill="#A66C15"/><rect x="511.4" y="397.2" width="25.2" height="76.2" rx="9.6" fill="#ECAE61" fill-opacity="0.55"/><rect x="513.3" y="399.1" width="15" height="66" rx="4.5" fill="#ECAE61"/><rect x="519.7" y="404.9" width="15" height="66" rx="4.5" fill="#A66C15"/><rect x="544.7" y="397.2" width="25.2" height="76.2" rx="9.6" fill="#ECAE61" fill-opacity="0.55"/><rect x="546.6" y="399.1" width="15" height="66" rx="4.5" fill="#ECAE61"/><rect x="553.0" y="404.9" width="15" height="66" rx="4.5" fill="#A66C15"/><rect x="578.1" y="397.2" width="25.2" height="76.2" rx="9.6" fill="#ECAE61" fill-opacity="0.55"/><rect x="580.0" y="399.1" width="15" height="66" rx="4.5" fill="#ECAE61"/><rect x="586.4" y="404.9" width="15" height="66" rx="4.5" fill="#A66C15"/><rect x="611.4" y="397.2" width="25.2" height="76.2" rx="9.6" fill="#ECAE61" fill-opacity="0.55"/><rect x="613.3" y="399.1" width="15" height="66" rx="4.5" fill="#ECAE61"/><rect x="619.7" y="404.9" width="15" height="66" rx="4.5" fill="#A66C15"/><rect x="644.7" y="397.2" width="25.2" height="76.2" rx="9.6" fill="#ECAE61" fill-opacity="0.55"/><rect x="646.6" y="399.1" width="15" height="66" rx="4.5" fill="#ECAE61"/><rect x="653.0" y="404.9" width="15" height="66" rx="4.5" fill="#A66C15"/><rect x="678.1" y="397.2" width="25.2" height="76.2" rx="9.6" fill="#ECAE61" fill-opacity="0.55"/><rect x="680.0" y="399.1" width="15" height="66" rx="4.5" fill="#ECAE61"/><rect x="686.4" y="404.9" width="15" height="66" rx="4.5" fill="#A66C15"/><rect x="711.4" y="397.2" width="25.2" height="76.2" rx="9.6" fill="#ECAE61" fill-opacity="0.55"/><rect x="713.3" y="399.1" width="15" height="66" rx="4.5" fill="#ECAE61"/><rect x="719.7" y="404.9" width="15" height="66" rx="4.5" fill="#A66C15"/><rect x="744.7" y="397.2" width="25.2" height="76.2" rx="9.6" fill="#ECAE61" fill-opacity="0.55"/><rect x="746.6" y="399.1" width="15" height="66" rx="4.5" fill="#ECAE61"/><rect x="753.0" y="404.9" width="15" height="66" rx="4.5" fill="#A66C15"/><rect x="478.1" y="498.9" width="25.2" height="76.2" rx="9.6" fill="#ECAE61" fill-opacity="0.55"/><rect x="480.0" y="500.8" width="15" height="66" rx="4.5" fill="#ECAE61"/><rect x="486.4" y="506.6" width="15" height="66" rx="4.5" fill="#A66C15"/><rect x="511.4" y="498.9" width="25.2" height="76.2" rx="9.6" fill="#ECAE61" fill-opacity="0.55"/><rect x="513.3" y="500.8" width="15" height="66" rx="4.5" fill="#ECAE61"/><rect x="519.7" y="506.6" width="15" height="66" rx="4.5" fill="#A66C15"/><rect x="544.7" y="498.9" width="25.2" height="76.2" rx="9.6" fill="#ECAE61" fill-opacity="0.55"/><rect x="546.6" y="500.8" width="15" height="66" rx="4.5" fill="#ECAE61"/><rect x="553.0" y="506.6" width="15" height="66" rx="4.5" fill="#A66C15"/><rect x="578.1" y="498.9" width="25.2" height="76.2" rx="9.6" fill="#ECAE61" fill-opacity="0.55"/><rect x="580.0" y="500.8" width="15" height="66" rx="4.5" fill="#ECAE61"/><rect x="586.4" y="506.6" width="15" height="66" rx="4.5" fill="#A66C15"/><rect x="611.4" y="498.9" width="25.2" height="76.2" rx="9.6" fill="#ECAE61" fill-opacity="0.55"/><rect x="613.3" y="500.8" width="15" height="66" rx="4.5" fill="#ECAE61"/><rect x="619.7" y="506.6" width="15" height="66" rx="4.5" fill="#A66C15"/><rect x="644.7" y="498.9" width="25.2" height="76.2" rx="9.6" fill="#ECAE61" fill-opacity="0.55"/><rect x="646.6" y="500.8" width="15" height="66" rx="4.5" fill="#ECAE61"/><rect x="653.0" y="506.6" width="15" height="66" rx="4.5" fill="#A66C15"/><rect x="678.1" y="498.9" width="25.2" height="76.2" rx="9.6" fill="#ECAE61" fill-opacity="0.55"/><rect x="680.0" y="500.8" width="15" height="66" rx="4.5" fill="#ECAE61"/><rect x="686.4" y="506.6" width="15" height="66" rx="4.5" fill="#A66C15"/><rect x="711.4" y="498.9" width="25.2" height="76.2" rx="9.6" fill="#ECAE61" fill-opacity="0.55"/><rect x="713.3" y="500.8" width="15" height="66" rx="4.5" fill="#ECAE61"/><rect x="719.7" y="506.6" width="15" height="66" rx="4.5" fill="#A66C15"/><rect x="744.7" y="498.9" width="25.2" height="76.2" rx="9.6" fill="#ECAE61" fill-opacity="0.55"/><rect x="746.6" y="500.8" width="15" height="66" rx="4.5" fill="#ECAE61"/><rect x="753.0" y="506.6" width="15" height="66" rx="4.5" fill="#A66C15"/><rect x="0" y="96" width="900" height="20" fill="#E1A357"/><rect x="0" y="96" width="900" height="3" fill="#ECAE61"/><rect x="0" y="113" width="900" height="3" fill="#B87D2C" fill-opacity="0.5"/><path d="M 0,116 L 0,44 A 44,44 0 0 1 44,0 L 330,0 C 372,0 395,96 437,96 L 437,116 Z" fill="url(#body)"/><path d="M 330,2 C 372,2 395,98 437,98" fill="none" stroke="#B87D2C" stroke-width="2" stroke-opacity="0.3"/><rect x="104.3" y="36.9" width="29.2" height="70.2" rx="9.6" fill="#ECAE61" fill-opacity="0.55"/><rect x="106.2" y="38.8" width="19" height="60" rx="4.5" fill="#ECAE61"/><rect x="112.6" y="44.6" width="19" height="60" rx="4.5" fill="#A66C15"/><rect x="132.0" y="36.9" width="29.2" height="70.2" rx="9.6" fill="#ECAE61" fill-opacity="0.55"/><rect x="133.9" y="38.8" width="19" height="60" rx="4.5" fill="#ECAE61"/><rect x="140.3" y="44.6" width="19" height="60" rx="4.5" fill="#A66C15"/><rect x="159.7" y="36.9" width="29.2" height="70.2" rx="9.6" fill="#ECAE61" fill-opacity="0.55"/><rect x="161.6" y="38.8" width="19" height="60" rx="4.5" fill="#ECAE61"/><rect x="168.0" y="44.6" width="19" height="60" rx="4.5" fill="#A66C15"/><rect x="187.4" y="36.9" width="29.2" height="70.2" rx="9.6" fill="#ECAE61" fill-opacity="0.55"/><rect x="189.3" y="38.8" width="19" height="60" rx="4.5" fill="#ECAE61"/><rect x="195.7" y="44.6" width="19" height="60" rx="4.5" fill="#A66C15"/><rect x="215.1" y="36.9" width="29.2" height="70.2" rx="9.6" fill="#ECAE61" fill-opacity="0.55"/><rect x="217.0" y="38.8" width="19" height="60" rx="4.5" fill="#ECAE61"/><rect x="223.4" y="44.6" width="19" height="60" rx="4.5" fill="#A66C15"/><rect x="242.8" y="36.9" width="29.2" height="70.2" rx="9.6" fill="#ECAE61" fill-opacity="0.55"/><rect x="244.7" y="38.8" width="19" height="60" rx="4.5" fill="#ECAE61"/><rect x="251.1" y="44.6" width="19" height="60" rx="4.5" fill="#A66C15"/><rect x="270.5" y="36.9" width="29.2" height="70.2" rx="9.6" fill="#ECAE61" fill-opacity="0.55"/><rect x="272.4" y="38.8" width="19" height="60" rx="4.5" fill="#ECAE61"/><rect x="278.8" y="44.6" width="19" height="60" rx="4.5" fill="#A66C15"/><rect x="0" y="604" width="900" height="80" fill="#D79A4D"/><rect x="0" y="604" width="900" height="3" fill="#ECAE61" fill-opacity="0.8"/><rect x="0" y="644" width="900" height="2.5" fill="#B87D2C" fill-opacity="0.3"/><rect x="112.0" y="608" width="76" height="44" rx="7" fill="#E1A357" fill-opacity="0.4" stroke="#B87D2C" stroke-width="2" stroke-opacity="0.25"/><rect x="262.0" y="608" width="76" height="44" rx="7" fill="#E1A357" fill-opacity="0.4" stroke="#B87D2C" stroke-width="2" stroke-opacity="0.25"/><rect x="412.0" y="608" width="76" height="44" rx="7" fill="#E1A357" fill-opacity="0.4" stroke="#B87D2C" stroke-width="2" stroke-opacity="0.25"/><rect x="562.0" y="608" width="76" height="44" rx="7" fill="#E1A357" fill-opacity="0.4" stroke="#B87D2C" stroke-width="2" stroke-opacity="0.25"/><rect x="712.0" y="608" width="76" height="44" rx="7" fill="#E1A357" fill-opacity="0.4" stroke="#B87D2C" stroke-width="2" stroke-opacity="0.25"/><rect x="0" y="0" width="900" height="684" fill="url(#sheen)"/></g><g clip-path="url(#shell)"><path d="M 0,622 L 0,44 A 44,44 0 0 1 44,0 L 330,0 C 372,0 395,96 437,96 L 846,96 A 54,54 0 0 1 900,150 L 900,622 A 62,62 0 0 1 838,684 L 62,684 A 62,62 0 0 1 0,622 Z" fill="none" stroke="#EEB97A" stroke-width="24"/><path d="M 0,622 L 0,44 A 44,44 0 0 1 44,0 L 330,0 C 372,0 395,96 437,96 L 846,96 A 54,54 0 0 1 900,150 L 900,622 A 62,62 0 0 1 838,684 L 62,684 A 62,62 0 0 1 0,622 Z" fill="none" stroke="#B87D2C" stroke-width="4" stroke-opacity="0.22" transform="translate(0,5)"/></g><path d="M 0,622 L 0,44 A 44,44 0 0 1 44,0 L 330,0 C 372,0 395,96 437,96 L 846,96 A 54,54 0 0 1 900,150 L 900,622 A 62,62 0 0 1 838,684 L 62,684 A 62,62 0 0 1 0,622 Z" fill="none" stroke="#C78A3C" stroke-width="2" stroke-opacity="0.7"/></g></g></svg>