<svg xmlns="http://www.w3.org/2000/svg" viewBox="0 0 900 720" width="900" height="720"><rect x="0" y="0" width="900" height="720" rx="62" fill="#C0614B"/><rect x="52" y="52" width="796" height="616" rx="12" fill="#AF523D"/><rect x="53.5" y="53.5" width="793" height="613" rx="11" fill="none" stroke="#8E3420" stroke-width="3" stroke-opacity=".45"/><rect x="64" y="64" width="772" height="592" rx="7" fill="none" stroke="#D6755E" stroke-width="3" stroke-opacity=".55"/><rect x="440.0" y="52" width="20" height="616" fill="#C0614B"/><rect x="440.0" y="52" width="3" height="616" fill="#D6755E" fill-opacity=".8"/><rect x="84.0" y="72.9" width="25.2" height="76.2" rx="9.6" fill="#D6755E" fill-opacity=".5"/><rect x="86.0" y="74.8" width="15" height="66" rx="4.5" fill="#D6755E"/><rect x="92.4" y="80.6" width="15" height="66" rx="4.5" fill="#8E3420"/><rect x="89.2" y="78.0" width="15" height="66" rx="4.5" fill="#8E3420" fill-opacity=".9"/><rect x="121.4" y="72.9" width="25.2" height="76.2" rx="9.6" fill="#D6755E" fill-opacity=".5"/><rect x="123.3" y="74.8" width="15" height="66" rx="4.5" fill="#D6755E"/><rect x="129.7" y="80.6" width="15" height="66" rx="4.5" fill="#8E3420"/><rect x="126.5" y="78.0" width="15" height="66" rx="4.5" fill="#8E3420" fill-opacity=".9"/><rect x="158.7" y="72.9" width="25.2" height="76.2" rx="9.6" fill="#D6755E" fill-opacity=".5"/><rect x="160.6" y="74.8" width="15" height="66" rx="4.5" fill="#D6755E"/><rect x="167.0" y="80.6" width="15" height="66" rx="4.5" fill="#8E3420"/><rect x="163.8" y="78.0" width="15" height="66" rx="4.5" fill="#8E3420" fill-opacity=".9"/><rect x="196.0" y="72.9" width="25.2" height="76.2" rx="9.6" fill="#D6755E" fill-opacity=".5"/><rect x="198.0" y="74.8" width="15" height="66" rx="4.5" fill="#D6755E"/><rect x="204.4" y="80.6" width="15" height="66" rx="4.5" fill="#8E3420"/><rect x="201.2" y="78.0" width="15" height="66" rx="4.5" fill="#8E3420" fill-opacity=".9"/><rect x="233.4" y="72.9" width="25.2" height="76.2" rx="9.6" fill="#D6755E" fill-opacity=".5"/><rect x="235.3" y="74.8" width="15" height="66" rx="4.5" fill="#D6755E"/><rect x="241.7" y="80.6" width="15" height="66" rx="4.5" fill="#8E3420"/><rect x="238.5" y="78.0" width="15" height="66" rx="4.5" fill="#8E3420" fill-opacity=".9"/><rect x="270.7" y="72.9" width="25.2" height="76.2" rx="9.6" fill="#D6755E" fill-opacity=".5"/><rect x="272.6" y="74.8" width="15" height="66" rx="4.5" fill="#D6755E"/><rect x="279.0" y="80.6" width="15" height="66" rx="4.5" fill="#8E3420"/><rect x="275.8" y="78.0" width="15" height="66" rx="4.5" fill="#8E3420" fill-opacity=".9"/><rect x="308.0" y="72.9" width="25.2" height="76.2" rx="9.6" fill="#D6755E" fill-opacity=".5"/><rect x="310.0" y="74.8" width="15" height="66" rx="4.5" fill="#D6755E"/><rect x="316.4" y="80.6" width="15" height="66" rx="4.5" fill="#8E3420"/><rect x="313.2" y="78.0" width="15" height="66" rx="4.5" fill="#8E3420" fill-opacity=".9"/><rect x="345.4" y="72.9" width="25.2" height="76.2" rx="9.6" fill="#D6755E" fill-opacity=".5"/><rect x="347.3" y="74.8" width="15" height="66" rx="4.5" fill="#D6755E"/><rect x="353.7" y="80.6" width="15" height="66" rx="4.5" fill="#8E3420"/><rect x="350.5" y="78.0" width="15" height="66" rx="4.5" fill="#8E3420" fill-opacity=".9"/><rect x="382.7" y="72.9" width="25.2" height="76.2" rx="9.6" fill="#D6755E" fill-opacity=".5"/><rect x="384.6" y="74.8" width="15" height="66" rx="4.5" fill="#D6755E"/><rect x="391.0" y="80.6" width="15" height="66" rx="4.5" fill="#8E3420"/><rect x="387.8" y="78.0" width="15" height="66" rx="4.5" fill="#8E3420" fill-opacity=".9"/><rect x="84.0" y="197.4" width="25.2" height="76.2" rx="9.6" fill="#D6755E" fill-opacity=".5"/><rect x="86.0" y="199.3" width="15" height="66" rx="4.5" fill="#D6755E"/><rect x="92.4" y="205.1" width="15" height="66" rx="4.5" fill="#8E3420"/><rect x="89.2" y="202.5" width="15" height="66" rx="4.5" fill="#8E3420" fill-opacity=".9"/><rect x="121.4" y="197.4" width="25.2" height="76.2" rx="9.6" fill="#D6755E" fill-opacity=".5"/><rect x="123.3" y="199.3" width="15" height="66" rx="4.5" fill="#D6755E"/><rect x="129.7" y="205.1" width="15" height="66" rx="4.5" fill="#8E3420"/><rect x="126.5" y="202.5" width="15" height="66" rx="4.5" fill="#8E3420" fill-opacity=".9"/><rect x="158.7" y="197.4" width="25.2" height="76.2" rx="9.6" fill="#D6755E" fill-opacity=".5"/><rect x="160.6" y="199.3" width="15" height="66" rx="4.5" fill="#D6755E"/><rect x="167.0" y="205.1" width="15" height="66" rx="4.5" fill="#8E3420"/><rect x="163.8" y="202.5" width="15" height="66" rx="4.5" fill="#8E3420" fill-opacity=".9"/><rect x="196.0" y="197.4" width="25.2" height="76.2" rx="9.6" fill="#D6755E" fill-opacity=".5"/><rect x="198.0" y="199.3" width="15" height="66" rx="4.5" fill="#D6755E"/><rect x="204.4" y="205.1" width="15" height="66" rx="4.5" fill="#8E3420"/><rect x="201.2" y="202.5" width="15" height="66" rx="4.5" fill="#8E3420" fill-opacity=".9"/><rect x="233.4" y="197.4" width="25.2" height="76.2" rx="9.6" fill="#D6755E" fill-opacity=".5"/><rect x="235.3" y="199.3" width="15" height="66" rx="4.5" fill="#D6755E"/><rect x="241.7" y="205.1" width="15" height="66" rx="4.5" fill="#8E3420"/><rect x="238.5" y="202.5" width="15" height="66" rx="4.5" fill="#8E3420" fill-opacity=".9"/><rect x="270.7" y="197.4" width="25.2" height="76.2" rx="9.6" fill="#D6755E" fill-opacity=".5"/><rect x="272.6" y="199.3" width="15" height="66" rx="4.5" fill="#D6755E"/><rect x="279.0" y="205.1" width="15" height="66" rx="4.5" fill="#8E3420"/><rect x="275.8" y="202.5" width="15" height="66" rx="4.5" fill="#8E3420" fill-opacity=".9"/><rect x="308.0" y="197.4" width="25.2" height="76.2" rx="9.6" fill="#D6755E" fill-opacity=".5"/><rect x="310.0" y="199.3" width="15" height="66" rx="4.5" fill="#D6755E"/><rect x="316.4" y="205.1" width="15" height="66" rx="4.5" fill="#8E3420"/><rect x="313.2" y="202.5" width="15" height="66" rx="4.5" fill="#8E3420" fill-opacity=".9"/><rect x="345.4" y="197.4" width="25.2" height="76.2" rx="9.6" fill="#D6755E" fill-opacity=".5"/><rect x="347.3" y="199.3" width="15" height="66" rx="4.5" fill="#D6755E"/><rect x="353.7" y="205.1" width="15" height="66" rx="4.5" fill="#8E3420"/><rect x="350.5" y="202.5" width="15" height="66" rx="4.5" fill="#8E3420" fill-opacity=".9"/><rect x="382.7" y="197.4" width="25.2" height="76.2" rx="9.6" fill="#D6755E" fill-opacity=".5"/><rect x="384.6" y="199.3" width="15" height="66" rx="4.5" fill="#D6755E"/><rect x="391.0" y="205.1" width="15" height="66" rx="4.5" fill="#8E3420"/><rect x="387.8" y="202.5" width="15" height="66" rx="4.5" fill="#8E3420" fill-opacity=".9"/><rect x="84.0" y="321.9" width="25.2" height="76.2" rx="9.6" fill="#D6755E" fill-opacity=".5"/><rect x="86.0" y="323.8" width="15" height="66" rx="4.5" fill="#D6755E"/><rect x="92.4" y="329.6" width="15" height="66" rx="4.5" fill="#8E3420"/><rect x="89.2" y="327.0" width="15" height="66" rx="4.5" fill="#8E3420" fill-opacity=".9"/><rect x="121.4" y="321.9" width="25.2" height="76.2" rx="9.6" fill="#D6755E" fill-opacity=".5"/><rect x="123.3" y="323.8" width="15" height="66" rx="4.5" fill="#D6755E"/><rect x="129.7" y="329.6" width="15" height="66" rx="4.5" fill="#8E3420"/><rect x="126.5" y="327.0" width="15" height="66" rx="4.5" fill="#8E3420" fill-opacity=".9"/><rect x="158.7" y="321.9" width="25.2" height="76.2" rx="9.6" fill="#D6755E" fill-opacity=".5"/><rect x="160.6" y="323.8" width="15" height="66" rx="4.5" fill="#D6755E"/><rect x="167.0" y="329.6" width="15" height="66" rx="4.5" fill="#8E3420"/><rect x="163.8" y="327.0" width="15" height="66" rx="4.5" fill="#8E3420" fill-opacity=".9"/><rect x="196.0" y="321.9" width="25.2" height="76.2" rx="9.6" fill="#D6755E" fill-opacity=".5"/><rect x="198.0" y="323.8" width="15" height="66" rx="4.5" fill="#D6755E"/><rect x="204.4" y="329.6" width="15" height="66" rx="4.5" fill="#8E3420"/><rect x="201.2" y="327.0" width="15" height="66" rx="4.5" fill="#8E3420" fill-opacity=".9"/><rect x="233.4" y="321.9" width="25.2" height="76.2" rx="9.6" fill="#D6755E" fill-opacity=".5"/><rect x="235.3" y="323.8" width="15" height="66" rx="4.5" fill="#D6755E"/><rect x="241.7" y="329.6" width="15" height="66" rx="4.5" fill="#8E3420"/><rect x="238.5" y="327.0" width="15" height="66" rx="4.5" fill="#8E3420" fill-opacity=".9"/><rect x="270.7" y="321.9" width="25.2" height="76.2" rx="9.6" fill="#D6755E" fill-opacity=".5"/><rect x="272.6" y="323.8" width="15" height="66" rx="4.5" fill="#D6755E"/><rect x="279.0" y="329.6" width="15" height="66" rx="4.5" fill="#8E3420"/><rect x="275.8" y="327.0" width="15" height="66" rx="4.5" fill="#8E3420" fill-opacity=".9"/><rect x="308.0" y="321.9" width="25.2" height="76.2" rx="9.6" fill="#D6755E" fill-opacity=".5"/><rect x="310.0" y="323.8" width="15" height="66" rx="4.5" fill="#D6755E"/><rect x="316.4" y="329.6" width="15" height="66" rx="4.5" fill="#8E3420"/><rect x="313.2" y="327.0" width="15" height="66" rx="4.5" fill="#8E3420" fill-opacity=".9"/><rect x="345.4" y="321.9" width="25.2" height="76.2" rx="9.6" fill="#D6755E" fill-opacity=".5"/><rect x="347.3" y="323.8" width="15" height="66" rx="4.5" fill="#D6755E"/><rect x="353.7" y="329.6" width="15" height="66" rx="4.5" fill="#8E3420"/><rect x="350.5" y="327.0" width="15" height="66" rx="4.5" fill="#8E3420" fill-opacity=".9"/><rect x="382.7" y="321.9" width="25.2" height="76.2" rx="9.6" fill="#D6755E" fill-opacity=".5"/><rect x="384.6" y="323.8" width="15" height="66" rx="4.5" fill="#D6755E"/><rect x="391.0" y="329.6" width="15" height="66" rx="4.5" fill="#8E3420"/><rect x="387.8" y="327.0" width="15" height="66" rx="4.5" fill="#8E3420" fill-opacity=".9"/><rect x="84.0" y="446.4" width="25.2" height="76.2" rx="9.6" fill="#D6755E" fill-opacity=".5"/><rect x="86.0" y="448.3" width="15" height="66" rx="4.5" fill="#D6755E"/><rect x="92.4" y="454.1" width="15" height="66" rx="4.5" fill="#8E3420"/><rect x="89.2" y="451.5" width="15" height="66" rx="4.5" fill="#8E3420" fill-opacity=".9"/><rect x="121.4" y="446.4" width="25.2" height="76.2" rx="9.6" fill="#D6755E" fill-opacity=".5"/><rect x="123.3" y="448.3" width="15" height="66" rx="4.5" fill="#D6755E"/><rect x="129.7" y="454.1" width="15" height="66" rx="4.5" fill="#8E3420"/><rect x="126.5" y="451.5" width="15" height="66" rx="4.5" fill="#8E3420" fill-opacity=".9"/><rect x="158.7" y="446.4" width="25.2" height="76.2" rx="9.6" fill="#D6755E" fill-opacity=".5"/><rect x="160.6" y="448.3" width="15" height="66" rx="4.5" fill="#D6755E"/><rect x="167.0" y="454.1" width="15" height="66" rx="4.5" fill="#8E3420"/><rect x="163.8" y="451.5" width="15" height="66" rx="4.5" fill="#8E3420" fill-opacity=".9"/><rect x="196.0" y="446.4" width="25.2" height="76.2" rx="9.6" fill="#D6755E" fill-opacity=".5"/><rect x="198.0" y="448.3" width="15" height="66" rx="4.5" fill="#D6755E"/><rect x="204.4" y="454.1" width="15" height="66" rx="4.5" fill="#8E3420"/><rect x="201.2" y="451.5" width="15" height="66" rx="4.5" fill="#8E3420" fill-opacity=".9"/><rect x="233.4" y="446.4" width="25.2" height="76.2" rx="9.6" fill="#D6755E" fill-opacity=".5"/><rect x="235.3" y="448.3" width="15" height="66" rx="4.5" fill="#D6755E"/><rect x="241.7" y="454.1" width="15" height="66" rx="4.5" fill="#8E3420"/><rect x="238.5" y="451.5" width="15" height="66" rx="4.5" fill="#8E3420" fill-opacity=".9"/><rect x="270.7" y="446.4" width="25.2" height="76.2" rx="9.6" fill="#D6755E" fill-opacity=".5"/><rect x="272.6" y="448.3" width="15" height="66" rx="4.5" fill="#D6755E"/><rect x="279.0" y="454.1" width="15" height="66" rx="4.5" fill="#8E3420"/><rect x="275.8" y="451.5" width="15" height="66" rx="4.5" fill="#8E3420" fill-opacity=".9"/><rect x="308.0" y="446.4" width="25.2" height="76.2" rx="9.6" fill="#D6755E" fill-opacity=".5"/><rect x="310.0" y="448.3" width="15" height="66" rx="4.5" fill="#D6755E"/><rect x="316.4" y="454.1" width="15" height="66" rx="4.5" fill="#8E3420"/><rect x="313.2" y="451.5" width="15" height="66" rx="4.5" fill="#8E3420" fill-opacity=".9"/><rect x="345.4" y="446.4" width="25.2" height="76.2" rx="9.6" fill="#D6755E" fill-opacity=".5"/><rect x="347.3" y="448.3" width="15" height="66" rx="4.5" fill="#D6755E"/><rect x="353.7" y="454.1" width="15" height="66" rx="4.5" fill="#8E3420"/><rect x="350.5" y="451.5" width="15" height="66" rx="4.5" fill="#8E3420" fill-opacity=".9"/><rect x="382.7" y="446.4" width="25.2" height="76.2" rx="9.6" fill="#D6755E" fill-opacity=".5"/><rect x="384.6" y="448.3" width="15" height="66" rx="4.5" fill="#D6755E"/><rect x="391.0" y="454.1" width="15" height="66" rx="4.5" fill="#8E3420"/><rect x="387.8" y="451.5" width="15" height="66" rx="4.5" fill="#8E3420" fill-opacity=".9"/><rect x="84.0" y="570.9" width="25.2" height="76.2" rx="9.6" fill="#D6755E" fill-opacity=".5"/><rect x="86.0" y="572.8" width="15" height="66" rx="4.5" fill="#D6755E"/><rect x="92.4" y="578.6" width="15" height="66" rx="4.5" fill="#8E3420"/><rect x="89.2" y="576.0" width="15" height="66" rx="4.5" fill="#8E3420" fill-opacity=".9"/><rect x="121.4" y="570.9" width="25.2" height="76.2" rx="9.6" fill="#D6755E" fill-opacity=".5"/><rect x="123.3" y="572.8" width="15" height="66" rx="4.5" fill="#D6755E"/><rect x="129.7" y="578.6" width="15" height="66" rx="4.5" fill="#8E3420"/><rect x="126.5" y="576.0" width="15" height="66" rx="4.5" fill="#8E3420" fill-opacity=".9"/><rect x="158.7" y="570.9" width="25.2" height="76.2" rx="9.6" fill="#D6755E" fill-opacity=".5"/><rect x="160.6" y="572.8" width="15" height="66" rx="4.5" fill="#D6755E"/><rect x="167.0" y="578.6" width="15" height="66" rx="4.5" fill="#8E3420"/><rect x="163.8" y="576.0" width="15" height="66" rx="4.5" fill="#8E3420" fill-opacity=".9"/><rect x="196.0" y="570.9" width="25.2" height="76.2" rx="9.6" fill="#D6755E" fill-opacity=".5"/><rect x="198.0" y="572.8" width="15" height="66" rx="4.5" fill="#D6755E"/><rect x="204.4" y="578.6" width="15" height="66" rx="4.5" fill="#8E3420"/><rect x="201.2" y="576.0" width="15" height="66" rx="4.5" fill="#8E3420" fill-opacity=".9"/><rect x="233.4" y="570.9" width="25.2" height="76.2" rx="9.6" fill="#D6755E" fill-opacity=".5"/><rect x="235.3" y="572.8" width="15" height="66" rx="4.5" fill="#D6755E"/><rect x="241.7" y="578.6" width="15" height="66" rx="4.5" fill="#8E3420"/><rect x="238.5" y="576.0" width="15" height="66" rx="4.5" fill="#8E3420" fill-opacity=".9"/><rect x="270.7" y="570.9" width="25.2" height="76.2" rx="9.6" fill="#D6755E" fill-opacity=".5"/><rect x="272.6" y="572.8" width="15" height="66" rx="4.5" fill="#D6755E"/><rect x="279.0" y="578.6" width="15" height="66" rx="4.5" fill="#8E3420"/><rect x="275.8" y="576.0" width="15" height="66" rx="4.5" fill="#8E3420" fill-opacity=".9"/><rect x="308.0" y="570.9" width="25.2" height="76.2" rx="9.6" fill="#D6755E" fill-opacity=".5"/><rect x="310.0" y="572.8" width="15" height="66" rx="4.5" fill="#D6755E"/><rect x="316.4" y="578.6" width="15" height="66" rx="4.5" fill="#8E3420"/><rect x="313.2" y="576.0" width="15" height="66" rx="4.5" fill="#8E3420" fill-opacity=".9"/><rect x="345.4" y="570.9" width="25.2" height="76.2" rx="9.6" fill="#D6755E" fill-opacity=".5"/><rect x="347.3" y="572.8" width="15" height="66" rx="4.5" fill="#D6755E"/><rect x="353.7" y="578.6" width="15" height="66" rx="4.5" fill="#8E3420"/><rect x="350.5" y="576.0" width="15" height="66" rx="4.5" fill="#8E3420" fill-opacity=".9"/><rect x="382.7" y="570.9" width="25.2" height="76.2" rx="9.6" fill="#D6755E" fill-opacity=".5"/><rect x="384.6" y="572.8" width="15" height="66" rx="4.5" fill="#D6755E"/><rect x="391.0" y="578.6" width="15" height="66" rx="4.5" fill="#8E3420"/><rect x="387.8" y="576.0" width="15" height="66" rx="4.5" fill="#8E3420" fill-opacity=".9"/><rect x="492.0" y="72.9" width="25.2" height="76.2" rx="9.6" fill="#D6755E" fill-opacity=".5"/><rect x="494.0" y="74.8" width="15" height="66" rx="4.5" fill="#D6755E"/><rect x="500.4" y="80.6" width="15" height="66" rx="4.5" fill="#8E3420"/><rect x="497.2" y="78.0" width="15" height="66" rx="4.5" fill="#8E3420" fill-opacity=".9"/><rect x="529.4" y="72.9" width="25.2" height="76.2" rx="9.6" fill="#D6755E" fill-opacity=".5"/><rect x="531.3" y="74.8" width="15" height="66" rx="4.5" fill="#D6755E"/><rect x="537.7" y="80.6" width="15" height="66" rx="4.5" fill="#8E3420"/><rect x="534.5" y="78.0" width="15" height="66" rx="4.5" fill="#8E3420" fill-opacity=".9"/><rect x="566.7" y="72.9" width="25.2" height="76.2" rx="9.6" fill="#D6755E" fill-opacity=".5"/><rect x="568.6" y="74.8" width="15" height="66" rx="4.5" fill="#D6755E"/><rect x="575.0" y="80.6" width="15" height="66" rx="4.5" fill="#8E3420"/><rect x="571.8" y="78.0" width="15" height="66" rx="4.5" fill="#8E3420" fill-opacity=".9"/><rect x="604.0" y="72.9" width="25.2" height="76.2" rx="9.6" fill="#D6755E" fill-opacity=".5"/><rect x="606.0" y="74.8" width="15" height="66" rx="4.5" fill="#D6755E"/><rect x="612.4" y="80.6" width="15" height="66" rx="4.5" fill="#8E3420"/><rect x="609.2" y="78.0" width="15" height="66" rx="4.5" fill="#8E3420" fill-opacity=".9"/><rect x="641.4" y="72.9" width="25.2" height="76.2" rx="9.6" fill="#D6755E" fill-opacity=".5"/><rect x="643.3" y="74.8" width="15" height="66" rx="4.5" fill="#D6755E"/><rect x="649.7" y="80.6" width="15" height="66" rx="4.5" fill="#8E3420"/><rect x="646.5" y="78.0" width="15" height="66" rx="4.5" fill="#8E3420" fill-opacity=".9"/><rect x="678.7" y="72.9" width="25.2" height="76.2" rx="9.6" fill="#D6755E" fill-opacity=".5"/><rect x="680.6" y="74.8" width="15" height="66" rx="4.5" fill="#D6755E"/><rect x="687.0" y="80.6" width="15" height="66" rx="4.5" fill="#8E3420"/><rect x="683.8" y="78.0" width="15" height="66" rx="4.5" fill="#8E3420" fill-opacity=".9"/><rect x="716.0" y="72.9" width="25.2" height="76.2" rx="9.6" fill="#D6755E" fill-opacity=".5"/><rect x="718.0" y="74.8" width="15" height="66" rx="4.5" fill="#D6755E"/><rect x="724.4" y="80.6" width="15" height="66" rx="4.5" fill="#8E3420"/><rect x="721.2" y="78.0" width="15" height="66" rx="4.5" fill="#8E3420" fill-opacity=".9"/><rect x="753.4" y="72.9" width="25.2" height="76.2" rx="9.6" fill="#D6755E" fill-opacity=".5"/><rect x="755.3" y="74.8" width="15" height="66" rx="4.5" fill="#D6755E"/><rect x="761.7" y="80.6" width="15" height="66" rx="4.5" fill="#8E3420"/><rect x="758.5" y="78.0" width="15" height="66" rx="4.5" fill="#8E3420" fill-opacity=".9"/><rect x="790.7" y="72.9" width="25.2" height="76.2" rx="9.6" fill="#D6755E" fill-opacity=".5"/><rect x="792.6" y="74.8" width="15" height="66" rx="4.5" fill="#D6755E"/><rect x="799.0" y="80.6" width="15" height="66" rx="4.5" fill="#8E3420"/><rect x="795.8" y="78.0" width="15" height="66" rx="4.5" fill="#8E3420" fill-opacity=".9"/><rect x="492.0" y="197.4" width="25.2" height="76.2" rx="9.6" fill="#D6755E" fill-opacity=".5"/><rect x="494.0" y="199.3" width="15" height="66" rx="4.5" fill="#D6755E"/><rect x="500.4" y="205.1" width="15" height="66" rx="4.5" fill="#8E3420"/><rect x="497.2" y="202.5" width="15" height="66" rx="4.5" fill="#8E3420" fill-opacity=".9"/><rect x="529.4" y="197.4" width="25.2" height="76.2" rx="9.6" fill="#D6755E" fill-opacity=".5"/><rect x="531.3" y="199.3" width="15" height="66" rx="4.5" fill="#D6755E"/><rect x="537.7" y="205.1" width="15" height="66" rx="4.5" fill="#8E3420"/><rect x="534.5" y="202.5" width="15" height="66" rx="4.5" fill="#8E3420" fill-opacity=".9"/><rect x="566.7" y="197.4" width="25.2" height="76.2" rx="9.6" fill="#D6755E" fill-opacity=".5"/><rect x="568.6" y="199.3" width="15" height="66" rx="4.5" fill="#D6755E"/><rect x="575.0" y="205.1" width="15" height="66" rx="4.5" fill="#8E3420"/><rect x="571.8" y="202.5" width="15" height="66" rx="4.5" fill="#8E3420" fill-opacity=".9"/><rect x="604.0" y="197.4" width="25.2" height="76.2" rx="9.6" fill="#D6755E" fill-opacity=".5"/><rect x="606.0" y="199.3" width="15" height="66" rx="4.5" fill="#D6755E"/><rect x="612.4" y="205.1" width="15" height="66" rx="4.5" fill="#8E3420"/><rect x="609.2" y="202.5" width="15" height="66" rx="4.5" fill="#8E3420" fill-opacity=".9"/><rect x="641.4" y="197.4" width="25.2" height="76.2" rx="9.6" fill="#D6755E" fill-opacity=".5"/><rect x="643.3" y="199.3" width="15" height="66" rx="4.5" fill="#D6755E"/><rect x="649.7" y="205.1" width="15" height="66" rx="4.5" fill="#8E3420"/><rect x="646.5" y="202.5" width="15" height="66" rx="4.5" fill="#8E3420" fill-opacity=".9"/><rect x="678.7" y="197.4" width="25.2" height="76.2" rx="9.6" fill="#D6755E" fill-opacity=".5"/><rect x="680.6" y="199.3" width="15" height="66" rx="4.5" fill="#D6755E"/><rect x="687.0" y="205.1" width="15" height="66" rx="4.5" fill="#8E3420"/><rect x="683.8" y="202.5" width="15" height="66" rx="4.5" fill="#8E3420" fill-opacity=".9"/><rect x="716.0" y="197.4" width="25.2" height="76.2" rx="9.6" fill="#D6755E" fill-opacity=".5"/><rect x="718.0" y="199.3" width="15" height="66" rx="4.5" fill="#D6755E"/><rect x="724.4" y="205.1" width="15" height="66" rx="4.5" fill="#8E3420"/><rect x="721.2" y="202.5" width="15" height="66" rx="4.5" fill="#8E3420" fill-opacity=".9"/><rect x="753.4" y="197.4" width="25.2" height="76.2" rx="9.6" fill="#D6755E" fill-opacity=".5"/><rect x="755.3" y="199.3" width="15" height="66" rx="4.5" fill="#D6755E"/><rect x="761.7" y="205.1" width="15" height="66" rx="4.5" fill="#8E3420"/><rect x="758.5" y="202.5" width="15" height="66" rx="4.5" fill="#8E3420" fill-opacity=".9"/><rect x="790.7" y="197.4" width="25.2" height="76.2" rx="9.6" fill="#D6755E" fill-opacity=".5"/><rect x="792.6" y="199.3" width="15" height="66" rx="4.5" fill="#D6755E"/><rect x="799.0" y="205.1" width="15" height="66" rx="4.5" fill="#8E3420"/><rect x="795.8" y="202.5" width="15" height="66" rx="4.5" fill="#8E3420" fill-opacity=".9"/><rect x="492.0" y="321.9" width="25.2" height="76.2" rx="9.6" fill="#D6755E" fill-opacity=".5"/><rect x="494.0" y="323.8" width="15" height="66" rx="4.5" fill="#D6755E"/><rect x="500.4" y="329.6" width="15" height="66" rx="4.5" fill="#8E3420"/><rect x="497.2" y="327.0" width="15" height="66" rx="4.5" fill="#8E3420" fill-opacity=".9"/><rect x="529.4" y="321.9" width="25.2" height="76.2" rx="9.6" fill="#D6755E" fill-opacity=".5"/><rect x="531.3" y="323.8" width="15" height="66" rx="4.5" fill="#D6755E"/><rect x="537.7" y="329.6" width="15" height="66" rx="4.5" fill="#8E3420"/><rect x="534.5" y="327.0" width="15" height="66" rx="4.5" fill="#8E3420" fill-opacity=".9"/><rect x="566.7" y="321.9" width="25.2" height="76.2" rx="9.6" fill="#D6755E" fill-opacity=".5"/><rect x="568.6" y="323.8" width="15" height="66" rx="4.5" fill="#D6755E"/><rect x="575.0" y="329.6" width="15" height="66" rx="4.5" fill="#8E3420"/><rect x="571.8" y="327.0" width="15" height="66" rx="4.5" fill="#8E3420" fill-opacity=".9"/><rect x="604.0" y="321.9" width="25.2" height="76.2" rx="9.6" fill="#D6755E" fill-opacity=".5"/><rect x="606.0" y="323.8" width="15" height="66" rx="4.5" fill="#D6755E"/><rect x="612.4" y="329.6" width="15" height="66" rx="4.5" fill="#8E3420"/><rect x="609.2" y="327.0" width="15" height="66" rx="4.5" fill="#8E3420" fill-opacity=".9"/><rect x="641.4" y="321.9" width="25.2" height="76.2" rx="9.6" fill="#D6755E" fill-opacity=".5"/><rect x="643.3" y="323.8" width="15" height="66" rx="4.5" fill="#D6755E"/><rect x="649.7" y="329.6" width="15" height="66" rx="4.5" fill="#8E3420"/><rect x="646.5" y="327.0" width="15" height="66" rx="4.5" fill="#8E3420" fill-opacity=".9"/><rect x="678.7" y="321.9" width="25.2" height="76.2" rx="9.6" fill="#D6755E" fill-opacity=".5"/><rect x="680.6" y="323.8" width="15" height="66" rx="4.5" fill="#D6755E"/><rect x="687.0" y="329.6" width="15" height="66" rx="4.5" fill="#8E3420"/><rect x="683.8" y="327.0" width="15" height="66" rx="4.5" fill="#8E3420" fill-opacity=".9"/><rect x="716.0" y="321.9" width="25.2" height="76.2" rx="9.6" fill="#D6755E" fill-opacity=".5"/><rect x="718.0" y="323.8" width="15" height="66" rx="4.5" fill="#D6755E"/><rect x="724.4" y="329.6" width="15" height="66" rx="4.5" fill="#8E3420"/><rect x="721.2" y="327.0" width="15" height="66" rx="4.5" fill="#8E3420" fill-opacity=".9"/><rect x="753.4" y="321.9" width="25.2" height="76.2" rx="9.6" fill="#D6755E" fill-opacity=".5"/><rect x="755.3" y="323.8" width="15" height="66" rx="4.5" fill="#D6755E"/><rect x="761.7" y="329.6" width="15" height="66" rx="4.5" fill="#8E3420"/><rect x="758.5" y="327.0" width="15" height="66" rx="4.5" fill="#8E3420" fill-opacity=".9"/><rect x="790.7" y="321.9" width="25.2" height="76.2" rx="9.6" fill="#D6755E" fill-opacity=".5"/><rect x="792.6" y="323.8" width="15" height="66" rx="4.5" fill="#D6755E"/><rect x="799.0" y="329.6" width="15" height="66" rx="4.5" fill="#8E3420"/><rect x="795.8" y="327.0" width="15" height="66" rx="4.5" fill="#8E3420" fill-opacity=".9"/><rect x="492.0" y="446.4" width="25.2" height="76.2" rx="9.6" fill="#D6755E" fill-opacity=".5"/><rect x="494.0" y="448.3" width="15" height="66" rx="4.5" fill="#D6755E"/><rect x="500.4" y="454.1" width="15" height="66" rx="4.5" fill="#8E3420"/><rect x="497.2" y="451.5" width="15" height="66" rx="4.5" fill="#8E3420" fill-opacity=".9"/><rect x="529.4" y="446.4" width="25.2" height="76.2" rx="9.6" fill="#D6755E" fill-opacity=".5"/><rect x="531.3" y="448.3" width="15" height="66" rx="4.5" fill="#D6755E"/><rect x="537.7" y="454.1" width="15" height="66" rx="4.5" fill="#8E3420"/><rect x="534.5" y="451.5" width="15" height="66" rx="4.5" fill="#8E3420" fill-opacity=".9"/><rect x="566.7" y="446.4" width="25.2" height="76.2" rx="9.6" fill="#D6755E" fill-opacity=".5"/><rect x="568.6" y="448.3" width="15" height="66" rx="4.5" fill="#D6755E"/><rect x="575.0" y="454.1" width="15" height="66" rx="4.5" fill="#8E3420"/><rect x="571.8" y="451.5" width="15" height="66" rx="4.5" fill="#8E3420" fill-opacity=".9"/><rect x="604.0" y="446.4" width="25.2" height="76.2" rx="9.6" fill="#D6755E" fill-opacity=".5"/><rect x="606.0" y="448.3" width="15" height="66" rx="4.5" fill="#D6755E"/><rect x="612.4" y="454.1" width="15" height="66" rx="4.5" fill="#8E3420"/><rect x="609.2" y="451.5" width="15" height="66" rx="4.5" fill="#8E3420" fill-opacity=".9"/><rect x="641.4" y="446.4" width="25.2" height="76.2" rx="9.6" fill="#D6755E" fill-opacity=".5"/><rect x="643.3" y="448.3" width="15" height="66" rx="4.5" fill="#D6755E"/><rect x="649.7" y="454.1" width="15" height="66" rx="4.5" fill="#8E3420"/><rect x="646.5" y="451.5" width="15" height="66" rx="4.5" fill="#8E3420" fill-opacity=".9"/><rect x="678.7" y="446.4" width="25.2" height="76.2" rx="9.6" fill="#D6755E" fill-opacity=".5"/><rect x="680.6" y="448.3" width="15" height="66" rx="4.5" fill="#D6755E"/><rect x="687.0" y="454.1" width="15" height="66" rx="4.5" fill="#8E3420"/><rect x="683.8" y="451.5" width="15" height="66" rx="4.5" fill="#8E3420" fill-opacity=".9"/><rect x="716.0" y="446.4" width="25.2" height="76.2" rx="9.6" fill="#D6755E" fill-opacity=".5"/><rect x="718.0" y="448.3" width="15" height="66" rx="4.5" fill="#D6755E"/><rect x="724.4" y="454.1" width="15" height="66" rx="4.5" fill="#8E3420"/><rect x="721.2" y="451.5" width="15" height="66" rx="4.5" fill="#8E3420" fill-opacity=".9"/><rect x="753.4" y="446.4" width="25.2" height="76.2" rx="9.6" fill="#D6755E" fill-opacity=".5"/><rect x="755.3" y="448.3" width="15" height="66" rx="4.5" fill="#D6755E"/><rect x="761.7" y="454.1" width="15" height="66" rx="4.5" fill="#8E3420"/><rect x="758.5" y="451.5" width="15" height="66" rx="4.5" fill="#8E3420" fill-opacity=".9"/><rect x="790.7" y="446.4" width="25.2" height="76.2" rx="9.6" fill="#D6755E" fill-opacity=".5"/><rect x="792.6" y="448.3" width="15" height="66" rx="4.5" fill="#D6755E"/><rect x="799.0" y="454.1" width="15" height="66" rx="4.5" fill="#8E3420"/><rect x="795.8" y="451.5" width="15" height="66" rx="4.5" fill="#8E3420" fill-opacity=".9"/><rect x="492.0" y="570.9" width="25.2" height="76.2" rx="9.6" fill="#D6755E" fill-opacity=".5"/><rect x="494.0" y="572.8" width="15" height="66" rx="4.5" fill="#D6755E"/><rect x="500.4" y="578.6" width="15" height="66" rx="4.5" fill="#8E3420"/><rect x="497.2" y="576.0" width="15" height="66" rx="4.5" fill="#8E3420" fill-opacity=".9"/><rect x="529.4" y="570.9" width="25.2" height="76.2" rx="9.6" fill="#D6755E" fill-opacity=".5"/><rect x="531.3" y="572.8" width="15" height="66" rx="4.5" fill="#D6755E"/><rect x="537.7" y="578.6" width="15" height="66" rx="4.5" fill="#8E3420"/><rect x="534.5" y="576.0" width="15" height="66" rx="4.5" fill="#8E3420" fill-opacity=".9"/><rect x="566.7" y="570.9" width="25.2" height="76.2" rx="9.6" fill="#D6755E" fill-opacity=".5"/><rect x="568.6" y="572.8" width="15" height="66" rx="4.5" fill="#D6755E"/><rect x="575.0" y="578.6" width="15" height="66" rx="4.5" fill="#8E3420"/><rect x="571.8" y="576.0" width="15" height="66" rx="4.5" fill="#8E3420" fill-opacity=".9"/><rect x="604.0" y="570.9" width="25.2" height="76.2" rx="9.6" fill="#D6755E" fill-opacity=".5"/><rect x="606.0" y="572.8" width="15" height="66" rx="4.5" fill="#D6755E"/><rect x="612.4" y="578.6" width="15" height="66" rx="4.5" fill="#8E3420"/><rect x="609.2" y="576.0" width="15" height="66" rx="4.5" fill="#8E3420" fill-opacity=".9"/><rect x="641.4" y="570.9" width="25.2" height="76.2" rx="9.6" fill="#D6755E" fill-opacity=".5"/><rect x="643.3" y="572.8" width="15" height="66" rx="4.5" fill="#D6755E"/><rect x="649.7" y="578.6" width="15" height="66" rx="4.5" fill="#8E3420"/><rect x="646.5" y="576.0" width="15" height="66" rx="4.5" fill="#8E3420" fill-opacity=".9"/><rect x="678.7" y="570.9" width="25.2" height="76.2" rx="9.6" fill="#D6755E" fill-opacity=".5"/><rect x="680.6" y="572.8" width="15" height="66" rx="4.5" fill="#D6755E"/><rect x="687.0" y="578.6" width="15" height="66" rx="4.5" fill="#8E3420"/><rect x="683.8" y="576.0" width="15" height="66" rx="4.5" fill="#8E3420" fill-opacity=".9"/><rect x="716.0" y="570.9" width="25.2" height="76.2" rx="9.6" fill="#D6755E" fill-opacity=".5"/><rect x="718.0" y="572.8" width="15" height="66" rx="4.5" fill="#D6755E"/><rect x="724.4" y="578.6" width="15" height="66" rx="4.5" fill="#8E3420"/><rect x="721.2" y="576.0" width="15" height="66" rx="4.5" fill="#8E3420" fill-opacity=".9"/><rect x="753.4" y="570.9" width="25.2" height="76.2" rx="9.6" fill="#D6755E" fill-opacity=".5"/><rect x="755.3" y="572.8" width="15" height="66" rx="4.5" fill="#D6755E"/><rect x="761.7" y="578.6" width="15" height="66" rx="4.5" fill="#8E3420"/><rect x="758.5" y="576.0" width="15" height="66" rx="4.5" fill="#8E3420" fill-opacity=".9"/><rect x="790.7" y="570.9" width="25.2" height="76.2" rx="9.6" fill="#D6755E" fill-opacity=".5"/><rect x="792.6" y="572.8" width="15" height="66" rx="4.5" fill="#D6755E"/><rect x="799.0" y="578.6" width="15" height="66" rx="4.5" fill="#8E3420"/><rect x="795.8" y="576.0" width="15" height="66" rx="4.5" fill="#8E3420" fill-opacity=".9"/></svg>