<svg xmlns="http://www.w3.org/2000/svg" viewBox="0 0 950 534" width="950" height="534"><rect x="0" y="0" width="950" height="534" rx="48" fill="#C0614B"/><rect x="113.2" y="22.0" width="723.5" height="446.6" rx="12" fill="#AF523D"/><rect x="114.8" y="23.5" width="720.5" height="443.6" rx="11" fill="none" stroke="#8E3420" stroke-width="3" stroke-opacity=".5"/><rect x="125.2" y="34.0" width="699.5" height="422.6" rx="7" fill="none" stroke="#D6755E" stroke-width="3" stroke-opacity=".6"/><rect x="10.0" y="26.0" width="89.2" height="77.3" rx="5" fill="#AF523D" fill-opacity=".55"/><rect x="10.0" y="24.0" width="89.2" height="77.3" rx="5" fill="none" stroke="#D6755E" stroke-width="2" stroke-opacity=".45"/><rect x="848.8" y="26.0" width="89.2" height="77.3" rx="5" fill="#AF523D" fill-opacity=".55"/><rect x="848.8" y="24.0" width="89.2" height="77.3" rx="5" fill="none" stroke="#D6755E" stroke-width="2" stroke-opacity=".45"/><rect x="10.0" y="115.3" width="89.2" height="77.3" rx="5" fill="#AF523D" fill-opacity=".55"/><rect x="10.0" y="113.3" width="89.2" height="77.3" rx="5" fill="none" stroke="#D6755E" stroke-width="2" stroke-opacity=".45"/><rect x="848.8" y="115.3" width="89.2" height="77.3" rx="5" fill="#AF523D" fill-opacity=".55"/><rect x="848.8" y="113.3" width="89.2" height="77.3" rx="5" fill="none" stroke="#D6755E" stroke-width="2" stroke-opacity=".45"/><rect x="10.0" y="204.6" width="89.2" height="77.3" rx="5" fill="#AF523D" fill-opacity=".55"/><rect x="10.0" y="202.6" width="89.2" height="77.3" rx="5" fill="none" stroke="#D6755E" stroke-width="2" stroke-opacity=".45"/><rect x="848.8" y="204.6" width="89.2" height="77.3" rx="5" fill="#AF523D" fill-opacity=".55"/><rect x="848.8" y="202.6" width="89.2" height="77.3" rx="5" fill="none" stroke="#D6755E" stroke-width="2" stroke-opacity=".45"/><rect x="10.0" y="294.0" width="89.2" height="77.3" rx="5" fill="#AF523D" fill-opacity=".55"/><rect x="10.0" y="292.0" width="89.2" height="77.3" rx="5" fill="none" stroke="#D6755E" stroke-width="2" stroke-opacity=".45"/><rect x="848.8" y="294.0" width="89.2" height="77.3" rx="5" fill="#AF523D" fill-opacity=".55"/><rect x="848.8" y="292.0" width="89.2" height="77.3" rx="5" fill="none" stroke="#D6755E" stroke-width="2" stroke-opacity=".45"/><rect x="10.0" y="383.3" width="89.2" height="77.3" rx="5" fill="#AF523D" fill-opacity=".55"/><rect x="10.0" y="381.3" width="89.2" height="77.3" rx="5" fill="none" stroke="#D6755E" stroke-width="2" stroke-opacity=".45"/><rect x="848.8" y="383.3" width="89.2" height="77.3" rx="5" fill="#AF523D" fill-opacity=".55"/><rect x="848.8" y="381.3" width="89.2" height="77.3" rx="5" fill="none" stroke="#D6755E" stroke-width="2" stroke-opacity=".45"/><rect x="466.0" y="22.0" width="18" height="446.6" fill="#C0614B"/><rect x="466.0" y="22.0" width="3" height="446.6" fill="#D6755E" fill-opacity=".85"/><rect x="139.8" y="38.9" width="25.2" height="76.2" rx="9.6" fill="#D6755E" fill-opacity=".5"/><rect x="141.7" y="40.8" width="15" height="66" rx="4.5" fill="#D6755E"/><rect x="148.1" y="46.6" width="15" height="66" rx="4.5" fill="#8E3420"/><rect x="144.9" y="44.0" width="15" height="66" rx="4.5" fill="#8E3420" fill-opacity=".92"/><rect x="174.1" y="38.9" width="25.2" height="76.2" rx="9.6" fill="#D6755E" fill-opacity=".5"/><rect x="176.0" y="40.8" width="15" height="66" rx="4.5" fill="#D6755E"/><rect x="182.4" y="46.6" width="15" height="66" rx="4.5" fill="#8E3420"/><rect x="179.2" y="44.0" width="15" height="66" rx="4.5" fill="#8E3420" fill-opacity=".92"/><rect x="208.4" y="38.9" width="25.2" height="76.2" rx="9.6" fill="#D6755E" fill-opacity=".5"/><rect x="210.3" y="40.8" width="15" height="66" rx="4.5" fill="#D6755E"/><rect x="216.7" y="46.6" width="15" height="66" rx="4.5" fill="#8E3420"/><rect x="213.5" y="44.0" width="15" height="66" rx="4.5" fill="#8E3420" fill-opacity=".92"/><rect x="242.7" y="38.9" width="25.2" height="76.2" rx="9.6" fill="#D6755E" fill-opacity=".5"/><rect x="244.6" y="40.8" width="15" height="66" rx="4.5" fill="#D6755E"/><rect x="251.0" y="46.6" width="15" height="66" rx="4.5" fill="#8E3420"/><rect x="247.8" y="44.0" width="15" height="66" rx="4.5" fill="#8E3420" fill-opacity=".92"/><rect x="277.0" y="38.9" width="25.2" height="76.2" rx="9.6" fill="#D6755E" fill-opacity=".5"/><rect x="278.9" y="40.8" width="15" height="66" rx="4.5" fill="#D6755E"/><rect x="285.3" y="46.6" width="15" height="66" rx="4.5" fill="#8E3420"/><rect x="282.1" y="44.0" width="15" height="66" rx="4.5" fill="#8E3420" fill-opacity=".92"/><rect x="311.3" y="38.9" width="25.2" height="76.2" rx="9.6" fill="#D6755E" fill-opacity=".5"/><rect x="313.2" y="40.8" width="15" height="66" rx="4.5" fill="#D6755E"/><rect x="319.6" y="46.6" width="15" height="66" rx="4.5" fill="#8E3420"/><rect x="316.4" y="44.0" width="15" height="66" rx="4.5" fill="#8E3420" fill-opacity=".92"/><rect x="345.6" y="38.9" width="25.2" height="76.2" rx="9.6" fill="#D6755E" fill-opacity=".5"/><rect x="347.5" y="40.8" width="15" height="66" rx="4.5" fill="#D6755E"/><rect x="353.9" y="46.6" width="15" height="66" rx="4.5" fill="#8E3420"/><rect x="350.7" y="44.0" width="15" height="66" rx="4.5" fill="#8E3420" fill-opacity=".92"/><rect x="379.9" y="38.9" width="25.2" height="76.2" rx="9.6" fill="#D6755E" fill-opacity=".5"/><rect x="381.8" y="40.8" width="15" height="66" rx="4.5" fill="#D6755E"/><rect x="388.2" y="46.6" width="15" height="66" rx="4.5" fill="#8E3420"/><rect x="385.0" y="44.0" width="15" height="66" rx="4.5" fill="#8E3420" fill-opacity=".92"/><rect x="414.2" y="38.9" width="25.2" height="76.2" rx="9.6" fill="#D6755E" fill-opacity=".5"/><rect x="416.1" y="40.8" width="15" height="66" rx="4.5" fill="#D6755E"/><rect x="422.5" y="46.6" width="15" height="66" rx="4.5" fill="#8E3420"/><rect x="419.3" y="44.0" width="15" height="66" rx="4.5" fill="#8E3420" fill-opacity=".92"/><rect x="139.8" y="151.1" width="25.2" height="76.2" rx="9.6" fill="#D6755E" fill-opacity=".5"/><rect x="141.7" y="153.0" width="15" height="66" rx="4.5" fill="#D6755E"/><rect x="148.1" y="158.8" width="15" height="66" rx="4.5" fill="#8E3420"/><rect x="144.9" y="156.2" width="15" height="66" rx="4.5" fill="#8E3420" fill-opacity=".92"/><rect x="174.1" y="151.1" width="25.2" height="76.2" rx="9.6" fill="#D6755E" fill-opacity=".5"/><rect x="176.0" y="153.0" width="15" height="66" rx="4.5" fill="#D6755E"/><rect x="182.4" y="158.8" width="15" height="66" rx="4.5" fill="#8E3420"/><rect x="179.2" y="156.2" width="15" height="66" rx="4.5" fill="#8E3420" fill-opacity=".92"/><rect x="208.4" y="151.1" width="25.2" height="76.2" rx="9.6" fill="#D6755E" fill-opacity=".5"/><rect x="210.3" y="153.0" width="15" height="66" rx="4.5" fill="#D6755E"/><rect x="216.7" y="158.8" width="15" height="66" rx="4.5" fill="#8E3420"/><rect x="213.5" y="156.2" width="15" height="66" rx="4.5" fill="#8E3420" fill-opacity=".92"/><rect x="242.7" y="151.1" width="25.2" height="76.2" rx="9.6" fill="#D6755E" fill-opacity=".5"/><rect x="244.6" y="153.0" width="15" height="66" rx="4.5" fill="#D6755E"/><rect x="251.0" y="158.8" width="15" height="66" rx="4.5" fill="#8E3420"/><rect x="247.8" y="156.2" width="15" height="66" rx="4.5" fill="#8E3420" fill-opacity=".92"/><rect x="277.0" y="151.1" width="25.2" height="76.2" rx="9.6" fill="#D6755E" fill-opacity=".5"/><rect x="278.9" y="153.0" width="15" height="66" rx="4.5" fill="#D6755E"/><rect x="285.3" y="158.8" width="15" height="66" rx="4.5" fill="#8E3420"/><rect x="282.1" y="156.2" width="15" height="66" rx="4.5" fill="#8E3420" fill-opacity=".92"/><rect x="311.3" y="151.1" width="25.2" height="76.2" rx="9.6" fill="#D6755E" fill-opacity=".5"/><rect x="313.2" y="153.0" width="15" height="66" rx="4.5" fill="#D6755E"/><rect x="319.6" y="158.8" width="15" height="66" rx="4.5" fill="#8E3420"/><rect x="316.4" y="156.2" width="15" height="66" rx="4.5" fill="#8E3420" fill-opacity=".92"/><rect x="345.6" y="151.1" width="25.2" height="76.2" rx="9.6" fill="#D6755E" fill-opacity=".5"/><rect x="347.5" y="153.0" width="15" height="66" rx="4.5" fill="#D6755E"/><rect x="353.9" y="158.8" width="15" height="66" rx="4.5" fill="#8E3420"/><rect x="350.7" y="156.2" width="15" height="66" rx="4.5" fill="#8E3420" fill-opacity=".92"/><rect x="379.9" y="151.1" width="25.2" height="76.2" rx="9.6" fill="#D6755E" fill-opacity=".5"/><rect x="381.8" y="153.0" width="15" height="66" rx="4.5" fill="#D6755E"/><rect x="388.2" y="158.8" width="15" height="66" rx="4.5" fill="#8E3420"/><rect x="385.0" y="156.2" width="15" height="66" rx="4.5" fill="#8E3420" fill-opacity=".92"/><rect x="414.2" y="151.1" width="25.2" height="76.2" rx="9.6" fill="#D6755E" fill-opacity=".5"/><rect x="416.1" y="153.0" width="15" height="66" rx="4.5" fill="#D6755E"/><rect x="422.5" y="158.8" width="15" height="66" rx="4.5" fill="#8E3420"/><rect x="419.3" y="156.2" width="15" height="66" rx="4.5" fill="#8E3420" fill-opacity=".92"/><rect x="139.8" y="263.3" width="25.2" height="76.2" rx="9.6" fill="#D6755E" fill-opacity=".5"/><rect x="141.7" y="265.2" width="15" height="66" rx="4.5" fill="#D6755E"/><rect x="148.1" y="271.0" width="15" height="66" rx="4.5" fill="#8E3420"/><rect x="144.9" y="268.4" width="15" height="66" rx="4.5" fill="#8E3420" fill-opacity=".92"/><rect x="174.1" y="263.3" width="25.2" height="76.2" rx="9.6" fill="#D6755E" fill-opacity=".5"/><rect x="176.0" y="265.2" width="15" height="66" rx="4.5" fill="#D6755E"/><rect x="182.4" y="271.0" width="15" height="66" rx="4.5" fill="#8E3420"/><rect x="179.2" y="268.4" width="15" height="66" rx="4.5" fill="#8E3420" fill-opacity=".92"/><rect x="208.4" y="263.3" width="25.2" height="76.2" rx="9.6" fill="#D6755E" fill-opacity=".5"/><rect x="210.3" y="265.2" width="15" height="66" rx="4.5" fill="#D6755E"/><rect x="216.7" y="271.0" width="15" height="66" rx="4.5" fill="#8E3420"/><rect x="213.5" y="268.4" width="15" height="66" rx="4.5" fill="#8E3420" fill-opacity=".92"/><rect x="242.7" y="263.3" width="25.2" height="76.2" rx="9.6" fill="#D6755E" fill-opacity=".5"/><rect x="244.6" y="265.2" width="15" height="66" rx="4.5" fill="#D6755E"/><rect x="251.0" y="271.0" width="15" height="66" rx="4.5" fill="#8E3420"/><rect x="247.8" y="268.4" width="15" height="66" rx="4.5" fill="#8E3420" fill-opacity=".92"/><rect x="277.0" y="263.3" width="25.2" height="76.2" rx="9.6" fill="#D6755E" fill-opacity=".5"/><rect x="278.9" y="265.2" width="15" height="66" rx="4.5" fill="#D6755E"/><rect x="285.3" y="271.0" width="15" height="66" rx="4.5" fill="#8E3420"/><rect x="282.1" y="268.4" width="15" height="66" rx="4.5" fill="#8E3420" fill-opacity=".92"/><rect x="311.3" y="263.3" width="25.2" height="76.2" rx="9.6" fill="#D6755E" fill-opacity=".5"/><rect x="313.2" y="265.2" width="15" height="66" rx="4.5" fill="#D6755E"/><rect x="319.6" y="271.0" width="15" height="66" rx="4.5" fill="#8E3420"/><rect x="316.4" y="268.4" width="15" height="66" rx="4.5" fill="#8E3420" fill-opacity=".92"/><rect x="345.6" y="263.3" width="25.2" height="76.2" rx="9.6" fill="#D6755E" fill-opacity=".5"/><rect x="347.5" y="265.2" width="15" height="66" rx="4.5" fill="#D6755E"/><rect x="353.9" y="271.0" width="15" height="66" rx="4.5" fill="#8E3420"/><rect x="350.7" y="268.4" width="15" height="66" rx="4.5" fill="#8E3420" fill-opacity=".92"/><rect x="379.9" y="263.3" width="25.2" height="76.2" rx="9.6" fill="#D6755E" fill-opacity=".5"/><rect x="381.8" y="265.2" width="15" height="66" rx="4.5" fill="#D6755E"/><rect x="388.2" y="271.0" width="15" height="66" rx="4.5" fill="#8E3420"/><rect x="385.0" y="268.4" width="15" height="66" rx="4.5" fill="#8E3420" fill-opacity=".92"/><rect x="414.2" y="263.3" width="25.2" height="76.2" rx="9.6" fill="#D6755E" fill-opacity=".5"/><rect x="416.1" y="265.2" width="15" height="66" rx="4.5" fill="#D6755E"/><rect x="422.5" y="271.0" width="15" height="66" rx="4.5" fill="#8E3420"/><rect x="419.3" y="268.4" width="15" height="66" rx="4.5" fill="#8E3420" fill-opacity=".92"/><rect x="139.8" y="375.5" width="25.2" height="76.2" rx="9.6" fill="#D6755E" fill-opacity=".5"/><rect x="141.7" y="377.4" width="15" height="66" rx="4.5" fill="#D6755E"/><rect x="148.1" y="383.1" width="15" height="66" rx="4.5" fill="#8E3420"/><rect x="144.9" y="380.6" width="15" height="66" rx="4.5" fill="#8E3420" fill-opacity=".92"/><rect x="174.1" y="375.5" width="25.2" height="76.2" rx="9.6" fill="#D6755E" fill-opacity=".5"/><rect x="176.0" y="377.4" width="15" height="66" rx="4.5" fill="#D6755E"/><rect x="182.4" y="383.1" width="15" height="66" rx="4.5" fill="#8E3420"/><rect x="179.2" y="380.6" width="15" height="66" rx="4.5" fill="#8E3420" fill-opacity=".92"/><rect x="208.4" y="375.5" width="25.2" height="76.2" rx="9.6" fill="#D6755E" fill-opacity=".5"/><rect x="210.3" y="377.4" width="15" height="66" rx="4.5" fill="#D6755E"/><rect x="216.7" y="383.1" width="15" height="66" rx="4.5" fill="#8E3420"/><rect x="213.5" y="380.6" width="15" height="66" rx="4.5" fill="#8E3420" fill-opacity=".92"/><rect x="242.7" y="375.5" width="25.2" height="76.2" rx="9.6" fill="#D6755E" fill-opacity=".5"/><rect x="244.6" y="377.4" width="15" height="66" rx="4.5" fill="#D6755E"/><rect x="251.0" y="383.1" width="15" height="66" rx="4.5" fill="#8E3420"/><rect x="247.8" y="380.6" width="15" height="66" rx="4.5" fill="#8E3420" fill-opacity=".92"/><rect x="277.0" y="375.5" width="25.2" height="76.2" rx="9.6" fill="#D6755E" fill-opacity=".5"/><rect x="278.9" y="377.4" width="15" height="66" rx="4.5" fill="#D6755E"/><rect x="285.3" y="383.1" width="15" height="66" rx="4.5" fill="#8E3420"/><rect x="282.1" y="380.6" width="15" height="66" rx="4.5" fill="#8E3420" fill-opacity=".92"/><rect x="311.3" y="375.5" width="25.2" height="76.2" rx="9.6" fill="#D6755E" fill-opacity=".5"/><rect x="313.2" y="377.4" width="15" height="66" rx="4.5" fill="#D6755E"/><rect x="319.6" y="383.1" width="15" height="66" rx="4.5" fill="#8E3420"/><rect x="316.4" y="380.6" width="15" height="66" rx="4.5" fill="#8E3420" fill-opacity=".92"/><rect x="345.6" y="375.5" width="25.2" height="76.2" rx="9.6" fill="#D6755E" fill-opacity=".5"/><rect x="347.5" y="377.4" width="15" height="66" rx="4.5" fill="#D6755E"/><rect x="353.9" y="383.1" width="15" height="66" rx="4.5" fill="#8E3420"/><rect x="350.7" y="380.6" width="15" height="66" rx="4.5" fill="#8E3420" fill-opacity=".92"/><rect x="379.9" y="375.5" width="25.2" height="76.2" rx="9.6" fill="#D6755E" fill-opacity=".5"/><rect x="381.8" y="377.4" width="15" height="66" rx="4.5" fill="#D6755E"/><rect x="388.2" y="383.1" width="15" height="66" rx="4.5" fill="#8E3420"/><rect x="385.0" y="380.6" width="15" height="66" rx="4.5" fill="#8E3420" fill-opacity=".92"/><rect x="414.2" y="375.5" width="25.2" height="76.2" rx="9.6" fill="#D6755E" fill-opacity=".5"/><rect x="416.1" y="377.4" width="15" height="66" rx="4.5" fill="#D6755E"/><rect x="422.5" y="383.1" width="15" height="66" rx="4.5" fill="#8E3420"/><rect x="419.3" y="380.6" width="15" height="66" rx="4.5" fill="#8E3420" fill-opacity=".92"/><rect x="510.5" y="38.9" width="25.2" height="76.2" rx="9.6" fill="#D6755E" fill-opacity=".5"/><rect x="512.5" y="40.8" width="15" height="66" rx="4.5" fill="#D6755E"/><rect x="518.9" y="46.6" width="15" height="66" rx="4.5" fill="#8E3420"/><rect x="515.7" y="44.0" width="15" height="66" rx="4.5" fill="#8E3420" fill-opacity=".92"/><rect x="544.8" y="38.9" width="25.2" height="76.2" rx="9.6" fill="#D6755E" fill-opacity=".5"/><rect x="546.8" y="40.8" width="15" height="66" rx="4.5" fill="#D6755E"/><rect x="553.2" y="46.6" width="15" height="66" rx="4.5" fill="#8E3420"/><rect x="550.0" y="44.0" width="15" height="66" rx="4.5" fill="#8E3420" fill-opacity=".92"/><rect x="579.1" y="38.9" width="25.2" height="76.2" rx="9.6" fill="#D6755E" fill-opacity=".5"/><rect x="581.1" y="40.8" width="15" height="66" rx="4.5" fill="#D6755E"/><rect x="587.5" y="46.6" width="15" height="66" rx="4.5" fill="#8E3420"/><rect x="584.3" y="44.0" width="15" height="66" rx="4.5" fill="#8E3420" fill-opacity=".92"/><rect x="613.4" y="38.9" width="25.2" height="76.2" rx="9.6" fill="#D6755E" fill-opacity=".5"/><rect x="615.4" y="40.8" width="15" height="66" rx="4.5" fill="#D6755E"/><rect x="621.8" y="46.6" width="15" height="66" rx="4.5" fill="#8E3420"/><rect x="618.6" y="44.0" width="15" height="66" rx="4.5" fill="#8E3420" fill-opacity=".92"/><rect x="647.8" y="38.9" width="25.2" height="76.2" rx="9.6" fill="#D6755E" fill-opacity=".5"/><rect x="649.7" y="40.8" width="15" height="66" rx="4.5" fill="#D6755E"/><rect x="656.1" y="46.6" width="15" height="66" rx="4.5" fill="#8E3420"/><rect x="652.9" y="44.0" width="15" height="66" rx="4.5" fill="#8E3420" fill-opacity=".92"/><rect x="682.1" y="38.9" width="25.2" height="76.2" rx="9.6" fill="#D6755E" fill-opacity=".5"/><rect x="684.0" y="40.8" width="15" height="66" rx="4.5" fill="#D6755E"/><rect x="690.4" y="46.6" width="15" height="66" rx="4.5" fill="#8E3420"/><rect x="687.2" y="44.0" width="15" height="66" rx="4.5" fill="#8E3420" fill-opacity=".92"/><rect x="716.4" y="38.9" width="25.2" height="76.2" rx="9.6" fill="#D6755E" fill-opacity=".5"/><rect x="718.3" y="40.8" width="15" height="66" rx="4.5" fill="#D6755E"/><rect x="724.7" y="46.6" width="15" height="66" rx="4.5" fill="#8E3420"/><rect x="721.5" y="44.0" width="15" height="66" rx="4.5" fill="#8E3420" fill-opacity=".92"/><rect x="750.7" y="38.9" width="25.2" height="76.2" rx="9.6" fill="#D6755E" fill-opacity=".5"/><rect x="752.6" y="40.8" width="15" height="66" rx="4.5" fill="#D6755E"/><rect x="759.0" y="46.6" width="15" height="66" rx="4.5" fill="#8E3420"/><rect x="755.8" y="44.0" width="15" height="66" rx="4.5" fill="#8E3420" fill-opacity=".92"/><rect x="785.0" y="38.9" width="25.2" height="76.2" rx="9.6" fill="#D6755E" fill-opacity=".5"/><rect x="786.9" y="40.8" width="15" height="66" rx="4.5" fill="#D6755E"/><rect x="793.3" y="46.6" width="15" height="66" rx="4.5" fill="#8E3420"/><rect x="790.1" y="44.0" width="15" height="66" rx="4.5" fill="#8E3420" fill-opacity=".92"/><rect x="510.5" y="151.1" width="25.2" height="76.2" rx="9.6" fill="#D6755E" fill-opacity=".5"/><rect x="512.5" y="153.0" width="15" height="66" rx="4.5" fill="#D6755E"/><rect x="518.9" y="158.8" width="15" height="66" rx="4.5" fill="#8E3420"/><rect x="515.7" y="156.2" width="15" height="66" rx="4.5" fill="#8E3420" fill-opacity=".92"/><rect x="544.8" y="151.1" width="25.2" height="76.2" rx="9.6" fill="#D6755E" fill-opacity=".5"/><rect x="546.8" y="153.0" width="15" height="66" rx="4.5" fill="#D6755E"/><rect x="553.2" y="158.8" width="15" height="66" rx="4.5" fill="#8E3420"/><rect x="550.0" y="156.2" width="15" height="66" rx="4.5" fill="#8E3420" fill-opacity=".92"/><rect x="579.1" y="151.1" width="25.2" height="76.2" rx="9.6" fill="#D6755E" fill-opacity=".5"/><rect x="581.1" y="153.0" width="15" height="66" rx="4.5" fill="#D6755E"/><rect x="587.5" y="158.8" width="15" height="66" rx="4.5" fill="#8E3420"/><rect x="584.3" y="156.2" width="15" height="66" rx="4.5" fill="#8E3420" fill-opacity=".92"/><rect x="613.4" y="151.1" width="25.2" height="76.2" rx="9.6" fill="#D6755E" fill-opacity=".5"/><rect x="615.4" y="153.0" width="15" height="66" rx="4.5" fill="#D6755E"/><rect x="621.8" y="158.8" width="15" height="66" rx="4.5" fill="#8E3420"/><rect x="618.6" y="156.2" width="15" height="66" rx="4.5" fill="#8E3420" fill-opacity=".92"/><rect x="647.8" y="151.1" width="25.2" height="76.2" rx="9.6" fill="#D6755E" fill-opacity=".5"/><rect x="649.7" y="153.0" width="15" height="66" rx="4.5" fill="#D6755E"/><rect x="656.1" y="158.8" width="15" height="66" rx="4.5" fill="#8E3420"/><rect x="652.9" y="156.2" width="15" height="66" rx="4.5" fill="#8E3420" fill-opacity=".92"/><rect x="682.1" y="151.1" width="25.2" height="76.2" rx="9.6" fill="#D6755E" fill-opacity=".5"/><rect x="684.0" y="153.0" width="15" height="66" rx="4.5" fill="#D6755E"/><rect x="690.4" y="158.8" width="15" height="66" rx="4.5" fill="#8E3420"/><rect x="687.2" y="156.2" width="15" height="66" rx="4.5" fill="#8E3420" fill-opacity=".92"/><rect x="716.4" y="151.1" width="25.2" height="76.2" rx="9.6" fill="#D6755E" fill-opacity=".5"/><rect x="718.3" y="153.0" width="15" height="66" rx="4.5" fill="#D6755E"/><rect x="724.7" y="158.8" width="15" height="66" rx="4.5" fill="#8E3420"/><rect x="721.5" y="156.2" width="15" height="66" rx="4.5" fill="#8E3420" fill-opacity=".92"/><rect x="750.7" y="151.1" width="25.2" height="76.2" rx="9.6" fill="#D6755E" fill-opacity=".5"/><rect x="752.6" y="153.0" width="15" height="66" rx="4.5" fill="#D6755E"/><rect x="759.0" y="158.8" width="15" height="66" rx="4.5" fill="#8E3420"/><rect x="755.8" y="156.2" width="15" height="66" rx="4.5" fill="#8E3420" fill-opacity=".92"/><rect x="785.0" y="151.1" width="25.2" height="76.2" rx="9.6" fill="#D6755E" fill-opacity=".5"/><rect x="786.9" y="153.0" width="15" height="66" rx="4.5" fill="#D6755E"/><rect x="793.3" y="158.8" width="15" height="66" rx="4.5" fill="#8E3420"/><rect x="790.1" y="156.2" width="15" height="66" rx="4.5" fill="#8E3420" fill-opacity=".92"/><rect x="510.5" y="263.3" width="25.2" height="76.2" rx="9.6" fill="#D6755E" fill-opacity=".5"/><rect x="512.5" y="265.2" width="15" height="66" rx="4.5" fill="#D6755E"/><rect x="518.9" y="271.0" width="15" height="66" rx="4.5" fill="#8E3420"/><rect x="515.7" y="268.4" width="15" height="66" rx="4.5" fill="#8E3420" fill-opacity=".92"/><rect x="544.8" y="263.3" width="25.2" height="76.2" rx="9.6" fill="#D6755E" fill-opacity=".5"/><rect x="546.8" y="265.2" width="15" height="66" rx="4.5" fill="#D6755E"/><rect x="553.2" y="271.0" width="15" height="66" rx="4.5" fill="#8E3420"/><rect x="550.0" y="268.4" width="15" height="66" rx="4.5" fill="#8E3420" fill-opacity=".92"/><rect x="579.1" y="263.3" width="25.2" height="76.2" rx="9.6" fill="#D6755E" fill-opacity=".5"/><rect x="581.1" y="265.2" width="15" height="66" rx="4.5" fill="#D6755E"/><rect x="587.5" y="271.0" width="15" height="66" rx="4.5" fill="#8E3420"/><rect x="584.3" y="268.4" width="15" height="66" rx="4.5" fill="#8E3420" fill-opacity=".92"/><rect x="613.4" y="263.3" width="25.2" height="76.2" rx="9.6" fill="#D6755E" fill-opacity=".5"/><rect x="615.4" y="265.2" width="15" height="66" rx="4.5" fill="#D6755E"/><rect x="621.8" y="271.0" width="15" height="66" rx="4.5" fill="#8E3420"/><rect x="618.6" y="268.4" width="15" height="66" rx="4.5" fill="#8E3420" fill-opacity=".92"/><rect x="647.8" y="263.3" width="25.2" height="76.2" rx="9.6" fill="#D6755E" fill-opacity=".5"/><rect x="649.7" y="265.2" width="15" height="66" rx="4.5" fill="#D6755E"/><rect x="656.1" y="271.0" width="15" height="66" rx="4.5" fill="#8E3420"/><rect x="652.9" y="268.4" width="15" height="66" rx="4.5" fill="#8E3420" fill-opacity=".92"/><rect x="682.1" y="263.3" width="25.2" height="76.2" rx="9.6" fill="#D6755E" fill-opacity=".5"/><rect x="684.0" y="265.2" width="15" height="66" rx="4.5" fill="#D6755E"/><rect x="690.4" y="271.0" width="15" height="66" rx="4.5" fill="#8E3420"/><rect x="687.2" y="268.4" width="15" height="66" rx="4.5" fill="#8E3420" fill-opacity=".92"/><rect x="716.4" y="263.3" width="25.2" height="76.2" rx="9.6" fill="#D6755E" fill-opacity=".5"/><rect x="718.3" y="265.2" width="15" height="66" rx="4.5" fill="#D6755E"/><rect x="724.7" y="271.0" width="15" height="66" rx="4.5" fill="#8E3420"/><rect x="721.5" y="268.4" width="15" height="66" rx="4.5" fill="#8E3420" fill-opacity=".92"/><rect x="750.7" y="263.3" width="25.2" height="76.2" rx="9.6" fill="#D6755E" fill-opacity=".5"/><rect x="752.6" y="265.2" width="15" height="66" rx="4.5" fill="#D6755E"/><rect x="759.0" y="271.0" width="15" height="66" rx="4.5" fill="#8E3420"/><rect x="755.8" y="268.4" width="15" height="66" rx="4.5" fill="#8E3420" fill-opacity=".92"/><rect x="785.0" y="263.3" width="25.2" height="76.2" rx="9.6" fill="#D6755E" fill-opacity=".5"/><rect x="786.9" y="265.2" width="15" height="66" rx="4.5" fill="#D6755E"/><rect x="793.3" y="271.0" width="15" height="66" rx="4.5" fill="#8E3420"/><rect x="790.1" y="268.4" width="15" height="66" rx="4.5" fill="#8E3420" fill-opacity=".92"/><rect x="510.5" y="375.5" width="25.2" height="76.2" rx="9.6" fill="#D6755E" fill-opacity=".5"/><rect x="512.5" y="377.4" width="15" height="66" rx="4.5" fill="#D6755E"/><rect x="518.9" y="383.1" width="15" height="66" rx="4.5" fill="#8E3420"/><rect x="515.7" y="380.6" width="15" height="66" rx="4.5" fill="#8E3420" fill-opacity=".92"/><rect x="544.8" y="375.5" width="25.2" height="76.2" rx="9.6" fill="#D6755E" fill-opacity=".5"/><rect x="546.8" y="377.4" width="15" height="66" rx="4.5" fill="#D6755E"/><rect x="553.2" y="383.1" width="15" height="66" rx="4.5" fill="#8E3420"/><rect x="550.0" y="380.6" width="15" height="66" rx="4.5" fill="#8E3420" fill-opacity=".92"/><rect x="579.1" y="375.5" width="25.2" height="76.2" rx="9.6" fill="#D6755E" fill-opacity=".5"/><rect x="581.1" y="377.4" width="15" height="66" rx="4.5" fill="#D6755E"/><rect x="587.5" y="383.1" width="15" height="66" rx="4.5" fill="#8E3420"/><rect x="584.3" y="380.6" width="15" height="66" rx="4.5" fill="#8E3420" fill-opacity=".92"/><rect x="613.4" y="375.5" width="25.2" height="76.2" rx="9.6" fill="#D6755E" fill-opacity=".5"/><rect x="615.4" y="377.4" width="15" height="66" rx="4.5" fill="#D6755E"/><rect x="621.8" y="383.1" width="15" height="66" rx="4.5" fill="#8E3420"/><rect x="618.6" y="380.6" width="15" height="66" rx="4.5" fill="#8E3420" fill-opacity=".92"/><rect x="647.8" y="375.5" width="25.2" height="76.2" rx="9.6" fill="#D6755E" fill-opacity=".5"/><rect x="649.7" y="377.4" width="15" height="66" rx="4.5" fill="#D6755E"/><rect x="656.1" y="383.1" width="15" height="66" rx="4.5" fill="#8E3420"/><rect x="652.9" y="380.6" width="15" height="66" rx="4.5" fill="#8E3420" fill-opacity=".92"/><rect x="682.1" y="375.5" width="25.2" height="76.2" rx="9.6" fill="#D6755E" fill-opacity=".5"/><rect x="684.0" y="377.4" width="15" height="66" rx="4.5" fill="#D6755E"/><rect x="690.4" y="383.1" width="15" height="66" rx="4.5" fill="#8E3420"/><rect x="687.2" y="380.6" width="15" height="66" rx="4.5" fill="#8E3420" fill-opacity=".92"/><rect x="716.4" y="375.5" width="25.2" height="76.2" rx="9.6" fill="#D6755E" fill-opacity=".5"/><rect x="718.3" y="377.4" width="15" height="66" rx="4.5" fill="#D6755E"/><rect x="724.7" y="383.1" width="15" height="66" rx="4.5" fill="#8E3420"/><rect x="721.5" y="380.6" width="15" height="66" rx="4.5" fill="#8E3420" fill-opacity=".92"/><rect x="750.7" y="375.5" width="25.2" height="76.2" rx="9.6" fill="#D6755E" fill-opacity=".5"/><rect x="752.6" y="377.4" width="15" height="66" rx="4.5" fill="#D6755E"/><rect x="759.0" y="383.1" width="15" height="66" rx="4.5" fill="#8E3420"/><rect x="755.8" y="380.6" width="15" height="66" rx="4.5" fill="#8E3420" fill-opacity=".92"/><rect x="785.0" y="375.5" width="25.2" height="76.2" rx="9.6" fill="#D6755E" fill-opacity=".5"/><rect x="786.9" y="377.4" width="15" height="66" rx="4.5" fill="#D6755E"/><rect x="793.3" y="383.1" width="15" height="66" rx="4.5" fill="#8E3420"/><rect x="790.1" y="380.6" width="15" height="66" rx="4.5" fill="#8E3420" fill-opacity=".92"/><rect x="43.7" y="28.0" width="13" height="434.6" rx="5" fill="#8E3420" fill-opacity=".55"/><rect x="43.7" y="28.0" width="3" height="434.6" rx="1.5" fill="#A04530" fill-opacity=".6"/><rect x="53.7" y="28.0" width="3" height="434.6" rx="1.5" fill="#D6755E" fill-opacity=".5"/><rect x="39.7" y="172.6" width="21" height="22" rx="5" fill="#CB6B54" stroke="#A04530" stroke-width="2" stroke-opacity=".45"/><rect x="893.3" y="28.0" width="13" height="434.6" rx="5" fill="#8E3420" fill-opacity=".55"/><rect x="893.3" y="28.0" width="3" height="434.6" rx="1.5" fill="#A04530" fill-opacity=".6"/><rect x="903.3" y="28.0" width="3" height="434.6" rx="1.5" fill="#D6755E" fill-opacity=".5"/><rect x="889.3" y="172.6" width="21" height="22" rx="5" fill="#CB6B54" stroke="#A04530" stroke-width="2" stroke-opacity=".45"/><rect x="0" y="0" width="950" height="18.0" fill="#CB6B54"/><rect x="0" y="0" width="950" height="3" fill="#D6755E"/><rect x="0" y="472.6" width="950" height="61.4" fill="#C0614B"/><rect x="0" y="472.6" width="950" height="3" fill="#D6755E" fill-opacity=".8"/><rect x="144.9" y="476.6" width="90.2" height="36.8" rx="8" fill="#CB6B54" fill-opacity=".5" stroke="#A04530" stroke-width="2" stroke-opacity=".3"/><rect x="334.9" y="476.6" width="90.2" height="36.8" rx="8" fill="#CB6B54" fill-opacity=".5" stroke="#A04530" stroke-width="2" stroke-opacity=".3"/><rect x="524.9" y="476.6" width="90.2" height="36.8" rx="8" fill="#CB6B54" fill-opacity=".5" stroke="#A04530" stroke-width="2" stroke-opacity=".3"/><rect x="714.9" y="476.6" width="90.2" height="36.8" rx="8" fill="#CB6B54" fill-opacity=".5" stroke="#A04530" stroke-width="2" stroke-opacity=".3"/><rect x="53.0" y="520.0" width="52.2" height="18" rx="7" fill="#CB6B54" stroke="#A04530" stroke-width="2" stroke-opacity=".5"/><rect x="68.7" y="524.0" width="20.9" height="7" rx="3.5" fill="#8E3420" fill-opacity=".5"/><rect x="211.4" y="520.0" width="52.2" height="18" rx="7" fill="#CB6B54" stroke="#A04530" stroke-width="2" stroke-opacity=".5"/><rect x="227.1" y="524.0" width="20.9" height="7" rx="3.5" fill="#8E3420" fill-opacity=".5"/><rect x="369.7" y="520.0" width="52.2" height="18" rx="7" fill="#CB6B54" stroke="#A04530" stroke-width="2" stroke-opacity=".5"/><rect x="385.4" y="524.0" width="20.9" height="7" rx="3.5" fill="#8E3420" fill-opacity=".5"/><rect x="528.0" y="520.0" width="52.2" height="18" rx="7" fill="#CB6B54" stroke="#A04530" stroke-width="2" stroke-opacity=".5"/><rect x="543.7" y="524.0" width="20.9" height="7" rx="3.5" fill="#8E3420" fill-opacity=".5"/><rect x="686.4" y="520.0" width="52.2" height="18" rx="7" fill="#CB6B54" stroke="#A04530" stroke-width="2" stroke-opacity=".5"/><rect x="702.0" y="524.0" width="20.9" height="7" rx="3.5" fill="#8E3420" fill-opacity=".5"/><rect x="844.7" y="520.0" width="52.2" height="18" rx="7" fill="#CB6B54" stroke="#A04530" stroke-width="2" stroke-opacity=".5"/><rect x="860.4" y="524.0" width="20.9" height="7" rx="3.5" fill="#8E3420" fill-opacity=".5"/><rect x="0" y="0" width="950" height="534" rx="48" fill="none" stroke="#AF523D" stroke-width="2" stroke-opacity=".7"/></svg>