<svg xmlns="http://www.w3.org/2000/svg" viewBox="0 0 300 684" width="300" height="684"><rect x="0" y="0" width="300" height="684" rx="10" fill="#AF523D"/><rect x="5" y="4" width="290" height="10" rx="5" fill="#D6755E"/><rect x="13.0" y="26" width="43.8" height="634" rx="6" fill="#C0614B"/><rect x="13.0" y="22" width="43.8" height="634" rx="6" fill="none" stroke="#D6755E" stroke-width="2.5" stroke-opacity=".45"/><rect x="67.8" y="26" width="43.8" height="634" rx="6" fill="#C0614B"/><rect x="67.8" y="22" width="43.8" height="634" rx="6" fill="none" stroke="#D6755E" stroke-width="2.5" stroke-opacity=".45"/><rect x="122.6" y="26" width="43.8" height="634" rx="6" fill="#C0614B"/><rect x="122.6" y="22" width="43.8" height="634" rx="6" fill="none" stroke="#D6755E" stroke-width="2.5" stroke-opacity=".45"/><rect x="177.4" y="26" width="43.8" height="634" rx="6" fill="#C0614B"/><rect x="177.4" y="22" width="43.8" height="634" rx="6" fill="none" stroke="#D6755E" stroke-width="2.5" stroke-opacity=".45"/><rect x="232.2" y="26" width="43.8" height="634" rx="6" fill="#C0614B"/><rect x="232.2" y="22" width="43.8" height="634" rx="6" fill="none" stroke="#D6755E" stroke-width="2.5" stroke-opacity=".45"/></svg>